<?xml version="1.0" standalone="no"?>
<!DOCTYPE svg PUBLIC "-//W3C//DTD SVG 1.1//EN" "http://www.w3.org/Graphics/SVG/1.1/DTD/svg11.dtd" >
<svg xmlns="http://www.w3.org/2000/svg" xmlns:xlink="http://www.w3.org/1999/xlink" version="1.1">
<metadata></metadata>
<defs>
<font id="bulles_de_chocolatsregular" horiz-adv-x="1292" >
<font-face units-per-em="2048" ascent="1536" descent="-512" />
<missing-glyph horiz-adv-x="606" />
<glyph horiz-adv-x="0" />
<glyph horiz-adv-x="682" />
<glyph unicode=" "  horiz-adv-x="606" />
<glyph unicode="&#x09;" horiz-adv-x="606" />
<glyph unicode="&#xa0;" horiz-adv-x="606" />
<glyph unicode="!" horiz-adv-x="438" d="M35 444q0 59 2 153.5t4 207.5t4 233.5t2 236.5t-2 217t-8 171q-4 68 18.5 105.5t85.5 37.5q78 -2 128 -3t79 -8t40 -25.5t14.5 -53.5t0 -90t-3.5 -139q0 -178 -3 -312.5t-6 -254t-8 -238.5t-9 -266q4 -51 -13.5 -63.5t-56.5 -12.5q-23 0 -58.5 -1t-71.5 -2t-62.5 -1 t-32.5 2q-33 8 -39 29.5t-4 76.5zM37 147q4 61 33.5 100.5t113.5 41.5q78 4 121 -21.5t45 -93.5q0 -66 -31.5 -116t-121.5 -58q-43 -4 -71 8t-44 33.5t-26.5 49.5t-18.5 56zM103 706.5q1 -88.5 6 -202.5q0 -20 3.5 -42t28.5 -18q29 8 27 33t-6 47q-10 66 -16.5 108 t-10.5 69.5t-5 50t1 51t6 69.5t13 109q12 135 11 272.5t-20 272.5q-8 -115 -14 -203t-10 -163t-7.5 -144.5t-5.5 -145t-1 -164zM225 196.5q0 -6.5 7.5 -14.5t17.5 -26q16 18 26.5 25t15.5 13.5t4 13.5t-7 23q-2 4 -16.5 6.5t-18.5 -1.5q-16 -16 -22.5 -24.5t-6.5 -15z M231 506q4 -16 11.5 -30.5t17.5 -10.5q18 8 24.5 23.5t6.5 33t-2 37t0 35.5q2 12 0 24.5t-4 24.5q-41 -23 -53.5 -55.5t-0.5 -81.5z" />
<glyph unicode="#" horiz-adv-x="925" d="M31 1413v38v47.5v40.5v22q4 23 14 26.5t37 1.5h40.5t57.5 -2l-4 74q-10 68 68 68q76 0 111.5 -2.5t48 -15.5t10.5 -43t-2 -85q29 -2 56.5 -2h55.5l6 115q-2 25 9.5 31t35.5 6h38h47.5h41h21.5q23 -4 27 -14.5t2 -37.5v-40.5t-2 -57.5q23 0 41 1t32 3q68 10 68 -67 q0 -76 -2 -112t-15.5 -49t-43 -10t-85.5 3q-2 -29 -2 -57.5v-57.5q31 0 58.5 -1t56.5 -3q25 2 31 -9.5t6 -35.5v-38v-47.5v-42v-20.5q-4 -23 -14.5 -26.5t-36.5 -1.5h-99q0 -23 1.5 -40.5t3.5 -31.5q10 -68 -68 -68q-76 0 -111.5 2.5t-49 14.5t-10.5 42t3 87q-29 0 -57.5 1 t-57.5 1q0 -31 -1 -59.5t-3 -55.5q2 -25 -9 -31t-36 -6h-37.5h-47h-42h-20.5q-23 4 -27 14.5t-2 37.5v98l-72 -4q-68 -10 -67 67q0 76 2 112t14 48t42 10t87 -2q0 29 1 56.5t1 56.5l-114 6q-25 -2 -31 9.5t-6 35.5zM82 1520q4 -18 15.5 -17.5t21.5 4.5l63 11q0 6 -1 12 t-1 14q-16 0 -34.5 -1t-34.5 -1q-10 -2 -21.5 -4t-7.5 -18zM168 1081q2 0 4 -1t4 -1v2h-8zM217 1077q8 -2 23 -2q0 4 -1 7.5t-1 7.5q-12 0 -21 -3v-10zM219 983.5q0 -18.5 2 -35.5q2 -10 4.5 -21t18.5 -7q18 4 17 15t-5 21q-4 16 -6 32l-4 32q-8 0 -14.5 -1t-12.5 -1v-34.5z M408 1247q29 -2 54 -2h54v54.5t2 54.5h-55.5t-52.5 2q-2 -29 -2 -55.5v-53.5zM584 1057h41v4q-10 -4 -17 12h-24v-16zM586 1016q0 -4 1 -9.5t1 -9.5q0 -8 6 -15t14 -5q16 6 18.5 16.5t0.5 22.5h-41z" />
<glyph unicode="$" horiz-adv-x="792" d="M51 924q-16 57 3.5 90t84.5 73q35 18 62.5 10.5t50.5 -30.5l24 84q-31 23 -59.5 47.5t-54.5 54.5q-47 55 -61.5 133t0 155t55.5 142.5t104 96.5q41 20 85 33.5t89 9.5q25 0 49 -6q45 141 56 168q16 37 52 27.5t73 -23.5q35 -10 49 -35t15 -56.5t-6 -67.5t-17 -69l-31 -96 q41 -72 37 -158q-2 -25 -9.5 -40t-31.5 -19q-23 -4 -39.5 -7t-34.5 -5l-37 -117q72 -33 112 -83t55 -107.5t11 -117t-18 -110.5q-41 -127 -115 -174t-172 -57q-20 -4 -40.5 -4t-43.5 2q-2 -10 -4 -17.5t-4 -13.5q-18 -61 -41 -69.5t-47 -0.5q-45 14 -68.5 34t-33 42.5 t-7.5 49t11 52.5v3q-70 59 -103 176zM143 1001q-2 -25 11.5 -39t38.5 -24q0 55 -33 74q-2 0 -9.5 -3.5t-7.5 -7.5zM303 1229q25 -33 58.5 -50.5t69.5 -31.5t71 -29.5t63 -46.5q-20 45 -52 68.5t-67.5 36t-73.5 23t-69 30.5zM363.5 1495q-1.5 -25 5.5 -45l30 96 q-16 -4 -24 -14q-10 -12 -11.5 -37zM430 924q18 2 35.5 8t30.5 18q20 20 15 45t-26 41l-16 13zM524 1214q33 -23 62 -53.5t49 -79.5q-6 115 -107 146q0 -4 -4 -13z" />
<glyph unicode="%" horiz-adv-x="911" d="M43 194.5q4 30.5 14 63.5q37 111 89.5 260.5t108.5 310t111.5 319.5t101.5 288t78 215t38 100q10 23 29.5 30t42 5t49 -10.5t51.5 -16.5q49 -14 68.5 -43.5t21.5 -67.5t-8.5 -81t-24.5 -82q-20 -55 -60 -161.5t-89.5 -239t-102.5 -275.5t-102 -275.5t-88 -241t-58 -165.5 q-12 -37 -27.5 -56.5t-30.5 -27.5t-30.5 -6t-31.5 6q-61 18 -95.5 42t-46.5 51.5t-8 58zM92 1513q8 59 33.5 94t97.5 31q63 -4 97 -31.5t30 -93.5q-4 -63 -33.5 -109t-103.5 -44q-37 0 -58.5 14.5t-33.5 36t-18.5 48t-10.5 54.5zM174 1505q4 -20 11.5 -37.5t33.5 -19.5 q29 0 39 17.5t12 39.5q2 25 -11 35t-36 12q-27 2 -36 -11t-13 -36zM410 934q39 88 79.5 177t74.5 181t56.5 186.5t26.5 196.5q-49 -88 -77.5 -180t-52 -187.5t-47 -189.5t-60.5 -184zM569 276q8 59 33.5 94t97.5 31q63 -4 97 -31.5t30 -93.5q-4 -63 -33.5 -109t-103.5 -44 q-37 0 -58.5 14.5t-33.5 36t-18.5 48t-10.5 54.5zM651 268q4 -20 11.5 -37.5t33.5 -19.5q29 0 39 17.5t13 39.5q2 25 -11.5 35t-36.5 12q-27 2 -36 -11t-13 -36z" />
<glyph unicode="'" horiz-adv-x="1157" d="M1169 1497q25 68 22 121t-3 111q6 59 31.5 93.5t91.5 30.5q59 -4 92 -31.5t27 -92.5q-6 -63 -51.5 -121t-95.5 -93.5t-88 -44t-26 26.5zM1234 1737.5q-1 -29.5 15 -66.5q29 33 40 59.5t3 57.5q-2 4 -13 8t-15 0q-29 -29 -30 -58.5z" />
<glyph unicode="*" horiz-adv-x="1705" d="M93 550.5q1 18.5 25.5 38t67.5 60.5l131 121l-190 223q-18 16 -14 28.5t22 29.5q10 10 27.5 26.5t34 31.5t30 27.5t15.5 14.5q18 12 29.5 7t27.5 -25q23 -27 74 -84.5t114 -128.5q53 49 105.5 93t97.5 81q16 18 28.5 14t29.5 -23q10 -10 26.5 -27.5t31.5 -33.5 t27.5 -29.5t14.5 -15.5q12 -18 7 -29.5t-26 -27.5q-23 -23 -75 -67t-115 -101q51 -53 93 -98.5t69 -67.5q27 -20 27.5 -43t-29.5 -51q-57 -53 -84 -76t-45.5 -22t-38 25.5t-60.5 67.5l-100 111q-63 -55 -112.5 -103t-73.5 -77q-44 -55 -95 2q-53 57 -75.5 83.5t-21.5 45z M245 1063q9 -6 19 -12q78 -59 144.5 -127t119.5 -148q37 -53 82 -99t97 -87q-98 129 -203 252t-221 237q-8 8 -16.5 13t-18.5 -7q-12 -16 -3 -22zM528 638q4 -5 30 -31.5t87 -86.5q4 -6 14.5 -7t14.5 7q10 23 -5.5 33t-23.5 25q-4 4 -8 7t-8 7q-4 -8 -21.5 0t-36 19.5 t-33 21.5t-10.5 5z" />
<glyph unicode="+" horiz-adv-x="919" d="M27 721v37.5v47v41v21.5q4 23 14 27t37 2q35 0 112.5 -2t171.5 -4q2 72 4.5 139.5t6.5 126.5q-2 25 9 31t36 6h37.5h47h41h21.5q23 -4 27 -14.5t2 -36.5q0 -33 -2 -100.5t-4 -153.5q74 0 135 1t96 5q68 10 68 -68t-2 -113.5t-15.5 -48t-44 -9.5t-90.5 3h-149 q-2 -84 0 -152.5t6 -105.5q10 -67 -68 -67t-113.5 2t-48 15.5t-9.5 44t3 89.5v179l-293 12q-25 -2 -30.5 9t-5.5 36zM78 827q4 -18 15 -17t22 5q96 16 190 19.5t191 -11.5q125 -18 258 4q-162 14 -324 21.5t-324 1.5q-10 -2 -21 -4.5t-7 -18.5zM598 728q6 -1 42 0t122 5 q8 0 15 6.5t5 14.5q-4 12 -11 16t-16.5 4t-17.5 -2t-16 0q-6 2 -12.5 0t-10.5 -2q4 -10 -13 -17.5t-38.5 -12.5t-38 -8t-10.5 -4z" />
<glyph unicode="," horiz-adv-x="348" d="M55 -84q25 68 22 121t-3 110q6 59 31.5 94t91.5 31q59 -4 92 -31.5t26 -93.5q-6 -63 -51 -120.5t-95 -93t-88 -44t-26 26.5zM120 156.5q-1 -29.5 15 -66.5q29 33 40 59.5t3 57.5q-2 4 -13 8t-15 0q-29 -29 -30 -58.5z" />
<glyph unicode="-" horiz-adv-x="925" d="M31 721v37.5v47v41v21.5q4 23 14 27t37 2q29 0 85 -1t128 -3t150.5 -3t151.5 -1t133.5 1t92.5 5q68 10 68 -68t-2 -113.5t-15.5 -48t-44 -9.5t-90.5 3q-84 0 -173 1.5t-177 4.5t-170 5t-151 6q-25 -2 -31 9t-6 36zM82 827q4 -18 15.5 -17t21.5 5q96 16 190 19.5 t191 -11.5q125 -18 258 4q-162 14 -324 21.5t-323 1.5q-10 -2 -21.5 -4.5t-7.5 -18.5zM602 728q6 -1 42 0t122 5q8 0 15 6.5t5 14.5q-4 12 -11 16t-16 4t-17.5 -2t-16.5 0q-6 2 -12 0t-11 -2q4 -10 -13 -17.5t-38.5 -12.5t-38 -8t-10.5 -4z" />
<glyph unicode="." horiz-adv-x="321" d="M29 147q8 59 33.5 94t97.5 31q63 -4 97 -31.5t30 -93.5q-4 -63 -34 -109t-103 -44q-37 0 -58.5 14.5t-34 36t-18.5 48t-10 54.5zM186 180q0 -6 5.5 -15t13.5 -28q14 16 23.5 23.5t13.5 12.5t4 11t-4 23q-2 4 -13.5 8t-15.5 0q-14 -14 -20.5 -21.5t-6.5 -13.5z" />
<glyph unicode="/" horiz-adv-x="878" d="M37 194.5q4 30.5 14 63.5q37 111 89.5 260.5t108.5 310t111.5 319.5t101.5 288t77.5 215t38.5 100q10 23 29.5 30t42 5t49 -10.5t51.5 -16.5q49 -14 68.5 -43.5t21.5 -67.5t-8.5 -81t-24.5 -82q-20 -55 -60 -161.5t-89.5 -239t-102.5 -275.5t-102.5 -275.5t-88 -241 t-57.5 -165.5q-12 -37 -27.5 -56.5t-31 -27.5t-30.5 -6t-32 6q-61 18 -95 42t-46 51.5t-8 58zM403 934q39 88 80 177t75 181t56.5 186.5t26.5 196.5q-49 -88 -77.5 -180t-52.5 -187.5t-47.5 -189.5t-60.5 -184z" />
<glyph unicode="0" horiz-adv-x="1214" d="M33 881q-2 18 0 86.5t9 155.5t18.5 177.5t29.5 149.5q47 166 184 258t342 82q61 4 124 -16.5t119 -62.5t101.5 -102.5t73.5 -133.5q57 -150 82 -302.5t25 -304t-22.5 -299t-61.5 -282.5q-18 -76 -77.5 -130.5t-135.5 -89t-157 -51t-140 -18.5q-150 -4 -244 55.5 t-158 190.5q-74 154 -92 315.5t-20 321.5zM191 622q-1 -112 24 -208.5t74 -166t114 -89.5q-78 70 -107.5 150.5t-37.5 167.5t-9.5 178.5t-21.5 181.5q-35 -102 -36 -214zM393 501q6 -46 47 -95q12 59 -1 105t-42 95q-10 -59 -4 -105zM464 843q-1 -85 4 -165t18.5 -140.5 t34.5 -93t52 -20.5q41 33 55.5 77t22.5 89q10 70 16.5 135.5t9.5 133t2 139t-5 155.5q0 35 -2 68.5t-9.5 61.5t-20.5 46.5t-34 22.5q-27 4 -45 -15.5t-31.5 -50.5t-22.5 -67.5t-15 -67.5q-12 -61 -20.5 -142t-9.5 -166zM627 305q35 0 53 10.5t26.5 27.5t11.5 38.5t7 40.5 q-31 -20 -57.5 -46t-40.5 -71zM688 1622q59 -45 117.5 -95t97.5 -145q-6 106 -59.5 163t-155.5 77zM768 580q27 35 41 59.5t17 47t-3 46t-20 58.5q-23 -53 -32 -102.5t-3 -108.5z" />
<glyph unicode="1" horiz-adv-x="538" d="M35 106q0 59 3 178t5 268.5t5 316.5t3 319.5t-3 278.5t-9 196q-6 68 22.5 105.5t108.5 37.5q98 -2 159.5 -3t97.5 -8t50.5 -25.5t17.5 -52.5t0 -90t-3 -138q0 -176 -3.5 -364.5t-8.5 -372t-10 -356.5t-11 -318q4 -51 -17.5 -63.5t-68.5 -12.5q-29 0 -74 -1t-89 -2t-79 -1 t-41 2q-41 8 -49 29.5t-6 76.5zM127 166q2 -20 7 -42t36 -18q35 8 32 33t-7 47q-35 199 -40 397.5t23 401.5q16 135 14 271.5t-24 271.5q-27 -342 -40 -680t-1 -682zM279.5 247.5q-15.5 -32.5 1.5 -79.5q6 -16 14 -30.5t22 -10.5q25 8 32 23.5t7 33t-3 36t1 34.5 q2 12 -1 24.5t-5 24.5q-53 -23 -68.5 -55.5z" />
<glyph unicode="2" horiz-adv-x="1179" d="M55 1437q6 81 39 154q57 131 214 191.5t370 38.5q72 -8 137.5 -37t117.5 -73t87 -102.5t45 -123.5q27 -166 -3 -320.5t-122 -296.5q-47 -72 -101.5 -137t-113.5 -127q-27 -27 -50.5 -54.5t-43.5 -55.5q-29 -43 -42.5 -69t-7 -39t33 -18.5t79.5 -9.5q78 -6 158 -11 t158 -13q82 -10 110.5 -61.5t18.5 -168.5q-4 -33 -16.5 -53t-32 -30.5t-42 -14.5t-47.5 -4h-70h-122h-150.5t-159.5 1t-147.5 1h-113.5q-55 0 -88 5t-50.5 22.5t-25.5 50.5t-15 88q-23 205 49 352.5t259 251.5q170 94 248.5 248t89.5 346q4 76 -42.5 123t-111.5 41 q-43 -4 -67.5 -20.5t-35 -41t-9.5 -55.5t7 -63q16 -78 -8 -97.5t-106 -19.5q-4 0 -41 -3t-82 0t-86 13t-49 39q-25 72 -19 153zM167 318.5q5 -78.5 42 -160.5q6 78 11 156.5t9 156.5q-10 2 -30 2q-37 -76 -32 -154.5z" />
<glyph unicode="3" horiz-adv-x="1179" d="M43 1722q2 33 14.5 53.5t32 32t42 15.5t46.5 4h70.5t122 -1t150.5 -1t160 -1t147.5 -1h113.5q55 0 88 -5.5t50.5 -21.5t25.5 -49t14 -88q23 -205 -48 -353.5t-257 -250.5l-4 -4q63 -55 114.5 -99.5t88.5 -91.5t60.5 -104.5t33.5 -139.5q8 -66 -1 -150.5t-37 -165.5 t-75 -146.5t-112 -92.5q-98 -41 -197.5 -58t-191 -11t-166 36.5t-119.5 86.5q-51 61 -84 136t-23 152q4 37 28 53.5t54.5 24.5t65.5 14.5t61 20.5q4 4 11.5 4t11.5 4q66 33 101.5 16.5t43.5 -96.5q2 -33 10.5 -62.5t25.5 -50t45 -29.5t71 -1q31 6 55.5 44t37.5 88t15 102.5 t-10 89.5q-23 63 -52.5 103t-66.5 67.5t-83 50t-99 53.5q-23 12 -32 42t-6 66.5t18.5 74.5t46.5 69q12 12 33.5 31.5t45 41t43 41t29.5 35.5q59 88 21.5 135.5t-142.5 57.5q-78 6 -157.5 -1t-157.5 3q-82 10 -109.5 60.5t-17.5 166.5zM532 1073q12 -24 41 -53q10 33 4 57.5 t-45 52.5q-12 -33 0 -57zM815 1718q53 -25 106.5 -49t116.5 -53q-20 47 -40.5 75.5t-45 40t-58.5 7.5t-79 -21z" />
<glyph unicode="4" horiz-adv-x="1269" d="M35 1657q-4 45 8 73.5t33.5 44t50.5 21.5t59 6q31 0 70 -1t74 -12t57.5 -38t20.5 -78q-4 -137 -4.5 -287.5t2.5 -285.5v-38t6 -31t23.5 -22.5t51.5 -15.5q35 -6 71 -13t66.5 -1t50 33.5t19.5 93.5q0 264 6 532q2 49 17.5 78t45.5 44.5t75 20.5t106 9q82 4 106.5 -32 t20.5 -107q-8 -131 -11 -260t-11 -261q-4 -66 16 -105.5t98 -37.5q49 2 69.5 -23.5t4.5 -80.5q-8 -29 -8 -60.5t-4 -62.5q-4 -39 -22.5 -65.5t-59.5 -22.5q-37 2 -58.5 -7.5t-31 -26.5t-10.5 -41t-1 -50q2 -111 3.5 -217.5t1.5 -216.5q0 -29 -1.5 -50.5t-10.5 -35 t-32.5 -20.5t-68.5 -7q-23 0 -59.5 -1t-72.5 1t-63.5 10t-33.5 29q-8 20 -12.5 87t-4.5 146.5t2 155.5t4 115q4 70 -24.5 91t-89.5 13q-45 -6 -98.5 -6h-108t-107.5 -1t-98 -5q-61 -4 -95 19.5t-36 95.5v128.5t1 172t1 188.5t-1 181t-1 147.5t-2 89.5zM899 420 q-2 -112 33 -225q4 115 6 227.5t4 226.5q-10 -2 -31 -2q-10 -115 -12 -227z" />
<glyph unicode="5" horiz-adv-x="1146" d="M46 391.5q-7 79.5 17 153.5q8 27 49.5 38t86.5 13t81.5 0t41.5 -2q82 0 106.5 -20.5t7.5 -98.5q-6 -33 -7 -63.5t10.5 -55t35 -41t66.5 -20.5q66 -4 111.5 42t41.5 122q0 57 -8 110q-8 45 -27.5 89t-58.5 67v2q-41 2 -94 2t-108.5 -2t-111 -5t-100.5 -7q-59 -6 -94 17.5 t-35 96.5v123v157v169v162t-1 133t-3 84q-4 45 8.5 73.5t34 44t50 21.5t59.5 6h43h117.5t145.5 1t154.5 1h144.5h116h67q47 0 88 -18.5t47 -83.5q10 -117 -18.5 -168t-110.5 -61q-78 -8 -153.5 -5.5t-161.5 5.5q-53 2 -100 1t-83 -13.5t-57.5 -41t-21.5 -84.5v-4 q0 -59 1 -117.5t1 -113.5v-41t7 -37t22.5 -25.5t46.5 -9.5h319q35 0 58.5 -10t40.5 -23q18 -14 30 -30q80 -123 106.5 -269.5t0.5 -312.5q-10 -66 -45 -123t-87.5 -102t-118 -74t-136.5 -37q-213 -23 -370 38.5t-214 193.5q-31 74 -38 153.5z" />
<glyph unicode="6" horiz-adv-x="1136" d="M51 647.5q10 151.5 82 292.5q12 25 55 89.5t102.5 150.5t129 183t136.5 185t123 157t89 99q37 33 85 18.5t90 -52t68.5 -87t22.5 -81.5q-4 -29 -23.5 -70t-50 -89t-68.5 -100.5t-78 -101.5t-79.5 -92t-72.5 -74q55 0 114.5 -8t113.5 -30.5t98 -61.5t69 -101 q59 -152 46 -321.5t-85 -329.5v2q-39 -66 -83 -110.5t-101.5 -71.5t-133 -36t-180.5 1q-72 6 -141.5 34t-127.5 71t-101.5 99t-61.5 122q-47 162 -37 313.5zM193.5 397.5q-0.5 -61.5 24 -114t72.5 -91t113 -49.5q-78 37 -106.5 82t-37.5 93.5t-10.5 98.5t-19.5 99 q-35 -57 -35.5 -118.5zM434 453q6 -76 57.5 -121t116.5 -39q25 4 45.5 13.5t38.5 25.5q33 33 43 85t8 101q-2 57 -14 121q-14 74 -68.5 105.5t-117.5 9.5q-41 -14 -64.5 -39t-38.5 -53q-16 -98 -6 -209zM759 1579q-3 -12 3 -25.5t20 -31.5q23 29 32 55t3 59 q-27 -18 -41 -31.5t-17 -25.5z" />
<glyph unicode="7" horiz-adv-x="1159" d="M41 1726q2 33 15.5 50.5t31.5 23.5t42 6h46h70.5t123 -1t151.5 -1t160 -1t147.5 -1h113.5q55 0 88 -5t50.5 -21.5t25.5 -49t14 -88.5q10 -82 4 -142t-28 -124q-8 -23 -41 -99.5t-81 -185t-106.5 -240.5t-117 -267.5t-111.5 -264.5t-90 -229q-10 -29 -16.5 -45 t-17.5 -24.5t-30.5 -11.5t-56.5 -3q-2 0 -37 -2t-76 0t-73.5 10t-32.5 29q2 63 36 182t83 261.5t106.5 290t107.5 271t86 205.5t42 90q31 43 24.5 68t-35 38t-75.5 18t-99 10q-80 6 -158.5 11t-156.5 15q-82 10 -110.5 60.5t-18.5 166.5zM948 1360q10 0 17.5 -1t15.5 -1 q37 76 32 142.5t-42 148.5q-6 -78 -11.5 -144.5t-11.5 -144.5z" />
<glyph unicode="8" horiz-adv-x="1216" d="M57 483q-2 10 0 48t9.5 86.5t18.5 97.5t30 84q37 70 129 116q-53 37 -80 78q-57 82 -82 167t-25 168t22.5 164t61.5 155q18 43 78 72.5t135.5 49t156.5 28.5t140 9q150 4 244 -29.5t158 -105.5q74 -84 92 -174t20 -176q2 -10 0 -48t-9 -86t-18.5 -98t-29.5 -83 q-37 -72 -129 -117q53 -37 80 -78q57 -82 81.5 -167t24.5 -168t-22.5 -164t-61.5 -154q-18 -43 -77.5 -73t-135 -49.5t-156.5 -28.5t-141 -9q-150 -4 -244 29.5t-157 105.5q-74 86 -92.5 174t-20.5 176zM217 340.5q-2 -61.5 22.5 -114t73.5 -91.5t115 -49q-78 37 -107.5 82 t-38 93t-9.5 98.5t-19 99.5q-35 -57 -37 -118.5zM372 1427.5q-3 -12.5 3 -25.5t20 -32q23 29 32 56.5t3 58.5q-27 -18 -41 -31.5t-17 -26zM418 275.5q6 -25.5 47 -52.5q12 33 -1 57.5t-42 51.5q-10 -31 -4 -56.5zM473 1573q31 10 57.5 24t40.5 39q-35 0 -53 -5t-26.5 -14 t-11.5 -21.5t-7 -22.5zM491.5 371.5q8.5 -64.5 34 -107.5t72.5 -33q41 18 55.5 43t22.5 50q20 78 25.5 147.5t-3.5 163.5q2 39 -11 71.5t-54 36.5q-27 2 -45.5 -8t-31.5 -27.5t-22.5 -38t-15.5 -36.5q-18 -51 -26.5 -124t0 -137.5zM521.5 1333.5q-5.5 -69.5 0.5 -164.5 q0 -39 13.5 -71.5t54.5 -36.5q27 -2 45 8t31.5 27.5t22.5 38t16 36.5q18 51 26 124t0 137.5t-33.5 106.5t-72.5 32q-41 -16 -56.5 -41t-21.5 -49q-20 -78 -25.5 -147.5zM651 168q35 0 53.5 5t26.5 14.5t11 21.5t8 22q-31 -10 -58 -25t-41 -38zM758 1581q-12 -33 1 -57.5 t42 -53.5q10 33 4 58.5t-47 52.5zM793 317q53 39 58 59.5t-24 57.5q-23 -29 -31.5 -56.5t-2.5 -60.5zM795 1718q78 -39 107.5 -83t37.5 -92t9.5 -98t19.5 -99q35 57 37 117.5t-23 113.5t-74 91t-114 50z" />
<glyph unicode="9" horiz-adv-x="1165" d="M60.5 1276q13.5 170 84.5 330q39 66 83 110.5t101.5 71.5t134.5 35t181 -2q72 -6 140.5 -34t127 -71t101.5 -99t61 -120q47 -162 38 -314.5t-83 -293.5q-12 -23 -55 -88.5t-102.5 -150.5t-129 -182t-136 -185t-123 -157t-89.5 -99q-37 -35 -85 -21t-90 53t-68.5 87.5 t-22.5 82.5q6 41 46 111t96.5 146.5t119 149.5t111.5 118q-55 0 -114.5 8t-114 30.5t-98.5 61.5t-69 100q-59 152 -45.5 322zM293 102q53 39 59 58.5t-22 56.5q-23 -29 -33 -55.5t-4 -59.5zM422 1313q0 -57 12 -121q14 -74 68.5 -106.5t118.5 -10.5q41 16 64.5 39.5 t37.5 54.5q14 98 6 209q-6 74 -57 120t-117 38q-45 -2 -82 -39q-33 -33 -43 -84t-8 -100zM573 1653q55 -27 108.5 -51.5t115.5 -53.5q-20 47 -40 76t-45.5 40t-58.5 8t-80 -19z" />
<glyph unicode=":" horiz-adv-x="321" d="M29 291q8 59 33.5 94t97.5 31q63 -4 97 -32t30 -93q-4 -63 -34 -109.5t-103 -44.5q-37 0 -58.5 14.5t-34 36t-18.5 48t-10 55.5zM29 803q8 59 33.5 94t97.5 31q63 -4 97 -32t30 -93q-4 -63 -34 -109.5t-103 -44.5q-37 0 -58.5 14.5t-34 36t-18.5 48t-10 55.5zM186 323.5 q0 -6.5 5.5 -15.5t13.5 -27q14 16 23.5 23t13.5 12.5t4 11.5t-4 22q-2 4 -13.5 8t-15.5 0q-14 -14 -20.5 -21t-6.5 -13.5zM186 835.5q0 -6.5 5.5 -15.5t13.5 -27q14 16 23.5 23t13.5 12.5t4 11.5t-4 22q-2 4 -13.5 8t-15.5 0q-14 -14 -20.5 -21t-6.5 -13.5z" />
<glyph unicode=";" horiz-adv-x="356" d="M57 66q25 68 22 121t-3 110q6 59 31.5 94t91.5 31q59 -4 92 -32t26 -93q-6 -63 -51 -120.5t-95 -93.5t-88 -44t-26 27zM66 803q8 59 33.5 94t97.5 31q63 -4 97 -32t30 -93q-4 -63 -34 -109.5t-104 -44.5q-37 0 -58.5 14.5t-33.5 36t-18 48t-10 55.5zM122 306 q-1 -30 15 -66q29 33 40 59.5t3 56.5q-2 4 -13 8.5t-15 0.5q-29 -29 -30 -59zM223 835.5q0 -6.5 5 -15.5t14 -27q14 16 23 23t13.5 12.5t4.5 11.5t-4 22q-2 4 -13.5 8t-15.5 0q-14 -14 -20.5 -21t-6.5 -13.5z" />
<glyph unicode="&#x3c;" horiz-adv-x="1054" d="M35 696q-8 47 16.5 79t61.5 59q285 205 464 324.5t220 144.5q23 12 42 8t36.5 -19.5t34 -38t32.5 -43.5q31 -41 31 -76.5t-20.5 -67.5t-54.5 -60.5t-69 -53.5q-106 -72 -207.5 -131t-205.5 -125q104 -66 205.5 -125t207.5 -131q35 -25 69 -53.5t54.5 -60t20.5 -68.5 t-31 -76q-16 -23 -32.5 -44t-34 -36.5t-37 -19.5t-41.5 8q-41 25 -220.5 143.5t-463.5 325.5q-37 27 -61.5 58.5t-16.5 78.5zM512 391q39 -23 74 -50.5t69.5 -55t70.5 -53t79 -44.5q-59 70 -136 115t-157 88zM778 1114q53 39 59.5 58.5t-22.5 56.5q-23 -29 -33 -55.5 t-4 -59.5z" />
<glyph unicode="=" horiz-adv-x="929" d="M33 862v38v47.5v41v21.5q4 23 14 26.5t37 1.5q29 0 85 -1t128 -3t150.5 -3t151.5 -1t133.5 1t92.5 5q68 11 68 -67t-2 -114t-15.5 -48t-44 -9t-90.5 3q-84 0 -173 1t-177 4t-170 5t-151 6q-25 -2 -31 9.5t-6 35.5zM37 530q0 76 2 112t15.5 48t44 10t89.5 -2 q84 0 173.5 -1t176.5 -4t170 -6t152 -5q25 2 31 -9t6 -36v-38v-47.5v-41.5v-21q-4 -23 -14.5 -26.5t-36.5 -1.5q-29 0 -85 1t-128 3t-151 3t-151.5 1t-133 -1t-93.5 -5q-67 -11 -67 67zM84 969q4 -18 15.5 -17.5t21.5 4.5q96 16 190.5 19.5t190.5 -10.5q125 -18 258 4 q-162 14 -324 21t-323 1q-10 -2 -21.5 -4t-7.5 -18zM141 604q4 -12 11.5 -16t16.5 -4t17.5 2t16.5 0q6 -2 12 0t10 2q-4 8 13.5 16t39 13.5t38 8.5t10 4t-43 0t-120.5 -5q-8 0 -15.5 -6.5t-5.5 -14.5zM170 530q162 -14 323.5 -21t323.5 -1q10 2 21.5 4t7.5 18 q-4 18 -15.5 17.5t-21.5 -4.5q-96 -16 -190.5 -19.5t-190.5 11.5q-125 18 -258 -5zM604 869q6 -1 42 0t122 5q8 0 15 6.5t5 14.5q-4 12 -11 16t-16 4t-17.5 -2t-16.5 0q-6 2 -12 0t-10 -2q4 -10 -13.5 -17t-39 -12t-38 -8.5t-10.5 -4.5z" />
<glyph unicode="&#x3e;" horiz-adv-x="1054" d="M82 258q0 37 20.5 68.5t54 60.5t68.5 53q106 72 208 131.5t206 124.5q-104 66 -206 125t-208 131q-35 25 -68.5 53.5t-54 60.5t-20.5 67.5t31 76.5q16 20 32.5 43t34 38.5t37 19.5t41.5 -8q41 -25 220 -145t464 -324q37 -27 61.5 -59t16.5 -79q8 -47 -16.5 -78.5 t-61.5 -58.5q-285 -207 -464 -325.5t-220 -143.5q-23 -12 -42 -8t-36.5 19.5t-34 37t-32.5 43.5q-31 39 -31 76zM217 220.5q-6 -19.5 23 -56.5q23 29 32.5 55.5t3.5 59.5q-53 -39 -59 -58.5zM250 1204q59 -70 136 -115t157 -88q-39 23 -74 50.5t-69.5 55.5t-70.5 53.5 t-79 43.5z" />
<glyph unicode="?" horiz-adv-x="1140" d="M62 1274q1 80 17.5 166t51.5 166q39 66 83 110.5t101.5 71.5t134 35t181.5 -2q72 -6 140.5 -34t126.5 -71t101 -99t62 -120q47 -162 38 -314.5t-83 -293.5q-12 -25 -45 -59.5t-75 -75.5t-88 -87t-82 -89t-58.5 -84t-18.5 -72q6 -51 -36 -74.5t-100 -28t-115.5 10 t-78.5 41.5q-27 33 -21.5 80t31 99t67.5 105.5t91 98.5q51 59 86 108t59.5 96.5t42 98.5t34.5 112q14 98 6 209q-6 74 -57.5 120t-116.5 38q-45 -2 -82 -39q-33 -33 -43 -84t-8 -100q0 -57 12 -121l6 -27q-10 -82 -35.5 -128t-58.5 -66.5t-70 -20.5t-68.5 9.5t-54 24.5 t-28.5 26q-25 45 -37.5 114.5t-11.5 149.5zM283 141q4 61 33.5 100.5t113.5 41.5q78 4 121 -21.5t45 -93.5q0 -66 -32 -116t-122 -58q-43 -4 -70.5 8t-44 33.5t-26.5 49.5t-18 56zM467 506q6 -70 57 -105q4 33 4 52.5t-6 31t-19.5 15.5t-35.5 6zM471 190.5q0 -6.5 7 -14.5 t18 -26q16 18 26 25t15.5 13.5t4.5 13.5t-7 23q-2 4 -16.5 6t-18.5 -2q-16 -16 -22.5 -24t-6.5 -14.5z" />
<glyph unicode="A" d="M48 70q-3 13 -3 29q0 18 4 40q16 92 46 228.5t66 290t73.5 310t70.5 291t57.5 231.5t32.5 130q16 66 23.5 102.5t26 54t58.5 19.5q20 1 51 1t73 -1h27.5h37t35.5 -1t25 -1q47 -2 73.5 -7t41 -20.5t21.5 -43t17 -72.5q78 -362 167 -752.5t173 -753.5q6 -23 11.5 -45 t2 -42.5t-19.5 -36t-57 -21.5q-35 -4 -80 -5h-10q-40 0 -78 7q-43 8 -77 29.5t-44 62.5q-8 35 -12 51.5t-9 51.5q-10 90 -60 134t-155 48h-19q-61 1 -102 -11q-47 -14 -74.5 -41.5t-39.5 -67.5t-19 -91q-10 -72 -25.5 -106.5t-40 -48t-59 -13.5t-79.5 -2h-20q-29 0 -53 4 q-32 6 -51.5 23t-26.5 45zM430 934q0 -8 1 -14.5t18 -1.5q18 6 19 14t-1 16q-1 12 -1 25q0 119 52 246q35 95 35 177v9q-41 -121 -72.5 -237.5t-50.5 -233.5zM537 700q-8 -35 2 -52t28.5 -23.5t39 -5.5t36.5 2q20 0 43 1t40 9t25.5 25.5t0.5 48.5q-12 49 -22.5 121.5 t-22 140t-25.5 115.5t-35 48q-16 0 -31.5 -48t-29 -115.5t-25.5 -141t-24 -125.5zM1094 342q2 -39 4 -77t10 -74.5t24.5 -71.5t45.5 -66v13q0 72 -20 138q-22 72 -64 138z" />
<glyph unicode="B" horiz-adv-x="1153" d="M35 1220.5q0 145.5 1 260t3 172.5q2 109 111 119q57 4 106 10t97 10q47 4 97 5h34q34 0 71 -1q281 -16 399 -181q79 -110 80 -272q0 -81 -20 -174l-4 -12l-4 -12q-10 -49 -17.5 -79t-6.5 -55.5t13.5 -53t42.5 -72.5q43 -66 64 -158q20 -91 21 -191v-12q0 -94 -16 -182 q-17 -94 -50 -164q-35 -78 -112 -128t-175 -54q-80 0 -148.5 -1t-133 -1h-131t-142.5 2q-158 2 -164 145q-4 68 -7 191t-5 272.5t-3 310t-1 306zM392 364v-30q0 -26 1 -37q62 -9 116 -9q31 0 58 3q76 8 135 67q20 20 33 52t13 67t-10.5 67.5t-35.5 55.5q-31 29 -67.5 43 t-77.5 15h-6q-38 0 -77 -11q-42 -12 -81 -37v-141q0 -55 -1 -105zM393 1110q43 -10 84 -14q20 -2 42 -2q16 0 33 1q40 3 73 19q35 18 56 49t27 66q2 13 3 27q-1 22 -7 44q-10 36 -36 64q-25 25 -71 31q-28 4 -55 4q-18 0 -36 -2q-53 -4 -113 -17v-270zM600 1589 q55 -25 108.5 -49t116.5 -53q-20 47 -40.5 75.5t-46 40t-58.5 7.5t-80 -21zM692 119q20 -3 40 -3q44 0 83 16q57 22 96 66t55 103q8 30 9 62q0 31 -8 63q-4 -86 -33 -131t-70 -71.5t-87 -47t-85 -57.5z" />
<glyph unicode="C" horiz-adv-x="1261" d="M36 958q5 142 34.5 274t89.5 234q109 188 238.5 278.5t261.5 91.5h3q131 0 251 -84q122 -85 219 -245q31 -49 44 -104t23 -113q5 -22 5 -45q0 -11 -1 -23q-4 -36 -45 -46q-18 -4 -57 -10.5t-81 -6.5t-75 10.5t-39 40.5q-18 78 -67 126q-50 48 -114 64q-30 7 -61 7 q-36 1 -73 -9q-70 -18 -127 -71q-35 -33 -57 -101q-22 -69 -34 -157q-11 -79 -11 -164q1 -11 1 -21q2 -96 11.5 -183t32 -154.5t57.5 -97.5q33 -47 75 -73t87 -32q15 -2 30 -2q30 0 59 8q44 12 83 41q47 35 75 95q27 56 27 107v7q0 43 22.5 57.5t57.5 22.5q6 2 33.5 10 t61.5 9h5q32 0 64 -12q35 -13 55 -56q12 -29 13 -79v-10q0 -46 -8 -96q-9 -56 -27.5 -105.5t-44.5 -76.5q-92 -129 -214 -205t-255 -88q-22 -1 -42 -1q-58 0 -102 8q-60 12 -100.5 27t-64 32.5t-36.5 25.5q-70 43 -125 134.5t-91.5 213t-54.5 263.5q-14 110 -13 220 q0 32 1 64zM169 770q3 -80 23.5 -156.5t69.5 -150.5q-39 155 -56 313q-14 128 -14 258q0 31 1 62q-11 -82 -19 -164q-6 -61 -6 -120q0 -21 1 -42zM207 1243q10 6 16 7t8 5l88 213q-51 -43 -78.5 -97t-33.5 -128zM659 1513q90 -4 166 -36.5t144 -90.5q-27 59 -63 98.5 t-77 55.5q-30 12 -61 12q-12 0 -24 -2q-44 -6 -85 -37z" />
<glyph unicode="D" horiz-adv-x="1173" d="M31 78v120v199.5t1 249.5t1 272.5t1 267.5t1 233.5t1 171t3 79.5q2 37 5 63.5t48 37.5q49 10 131 17t169 9q35 1 68 1q50 0 97 -2q78 -3 121 -11q51 -10 105.5 -30.5t103.5 -49.5t91 -68t66 -86q33 -61 53.5 -180t29.5 -264q4 -72 4 -148t-4 -155q-8 -158 -31 -298 t-64 -247.5t-100 -150.5q-31 -27 -87.5 -47.5t-119.5 -35t-124.5 -22.5t-104.5 -8h-396q-41 0 -55 29.5t-14 52.5zM389 436q0 -25 1 -49.5t4 -44.5t11.5 -33.5t24.5 -15.5q33 -6 72 -6q35 0 67.5 6t63.5 29.5t58.5 65.5t49.5 114q25 80 32 190q4 60 4 121q0 53 -3 105 q-6 114 -25.5 217.5t-46.5 171.5q-16 37 -36.5 71.5t-42 61t-45 41t-43.5 12.5h-11q-4 0 -9 1t-9 -1q-43 -4 -64.5 -27.5t-31 -69.5t-10.5 -115t-3 -165q0 -29 -2 -81t-3 -117.5t-2 -137t-1 -138.5v-121v-85zM469 1659q55 -25 108.5 -49.5t114.5 -53.5q-2 4 -4 10.5t-4 10.5 q10 -4 22.5 -10t24.5 -11q-33 72 -67 100q-29 24 -73 24q-6 0 -13 -1q-6 1 -13 1q-39 0 -96 -21zM575 102q33 -2 62 0h21q164 0 238 90q56 67 56 179q0 47 -10 102v-17q0 -41 -8 -77q-10 -43 -39 -78q-6 -6 -19.5 -40t-47.5 -71q-34 -38 -94 -66q-50 -23 -125 -23 q-17 0 -34 1z" />
<glyph unicode="E" horiz-adv-x="948" d="M35 229.5v163v224t1 257t1 262.5t1 238v99v83q-1 74 -1 99t2 50.5t9 46t21.5 33.5t36.5 13q76 0 173.5 -1t199 -1t196.5 -1t167 -1q63 0 67 -74q2 -4 2 -12q-2 -119 -7 -181.5t-24.5 -92t-59.5 -33.5t-111 -6h-111q-72 -2 -114 -4t-62.5 -20.5t-24.5 -62.5q-2 -22 -2 -55 t2 -77q6 -29 21.5 -38.5t38.5 -9.5q43 -2 86 -2t84 -2q79 -2 105 -32q24 -28 24 -101v-12q0 -39 -2 -78t-14 -69q-14 -32 -42 -50q-23 -15 -64 -15q-9 0 -18 1q-84 4 -128 5h-4q-40 1 -58 -17t-20 -65q-1 -21 -2 -51q0 -36 2 -87q1 -31 1 -58v-25q-1 -36 6 -60.5t25.5 -37 t59.5 -12.5q86 -2 166 -3h54q54 0 107 1q51 0 69.5 -23.5t20.5 -78.5q0 -102 -8 -156.5t-37.5 -77t-87 -24.5t-155.5 -2q-27 1 -64 1h-39q-62 -1 -130 -1t-130 -1h-40q-37 0 -64 1q-37 0 -58.5 8t-34 26.5t-18.5 49.5t-12 78q-2 8 -2 71.5zM711 1545q0 -9 6 -14t28 -5 q27 0 43.5 12t18.5 39q2 25 -2 49.5t-39 28.5q-23 2 -31 -4t-11 -17.5t-4 -25t-5 -25.5q2 -8 -1 -18.5t-3 -19.5z" />
<glyph unicode="F" horiz-adv-x="931" d="M33 119v72.5t1 167t1 231.5v265t1 268t1 243t-1 187.5t-1 101.5q-2 25 0 50.5t10 46t22.5 33.5t36.5 13q76 0 173.5 -1t197.5 -1t195.5 -1t169.5 -1q63 0 67 -74v-12q-2 -119 -7 -181.5t-24.5 -92t-59.5 -33.5t-111 -6h-109q-74 -2 -116 -4t-62.5 -20.5t-24.5 -62.5 q-2 -22 -2 -55t2 -77q8 -29 22.5 -38.5t37.5 -9.5q29 -1 57 -1h29h17l69 -3q37 -2 62.5 -9t39.5 -23.5t20.5 -43t6.5 -69.5q-4 -35 -6.5 -72t-13.5 -67.5t-37.5 -51t-82.5 -20.5q-68 4 -108 6h-16q-30 0 -48 -6q-24 -8 -32.5 -30.5t-8.5 -67.5v-502q0 -66 -7 -101.5 t-25.5 -51t-52 -17.5t-89.5 -2q-41 2 -42 1t6.5 -1t6.5 -1t-42 1q-37 0 -60.5 2t-37 13.5t-18.5 36t-7 71.5z" />
<glyph unicode="G" horiz-adv-x="1165" d="M43 862q8 141 22.5 252t41 204t69.5 176t109 169q37 39 86 65.5t102 42t109 21.5q43 4 83 4h27q96 -4 164 -34.5t113 -75t71.5 -97.5t40 -104t16.5 -94t3 -66q0 -27 -3 -50.5t-13.5 -44t-31 -33.5t-57.5 -17q-31 -4 -62.5 -9.5t-59 -1t-48 23.5t-28.5 67 q-12 68 -50 102.5t-85 40.5q-10 1 -21 1q-36 0 -70 -14q-45 -20 -73 -59q-16 -25 -28.5 -61.5t-20 -77.5t-11.5 -81t-4 -67q-6 -178 -6 -358q0 -25 1 -60.5t5 -73.5t13.5 -75t25.5 -63q12 -23 32.5 -41.5t46.5 -30.5t58 -14h10q27 0 58 8q39 12 61.5 39.5t33.5 61.5t15.5 70 t8.5 64q2 10 2 18q0 32 -25 43q-31 15 -59 3q-36 -16 -60 -16q-20 0 -31 11q-26 25 -32 79q-4 47 -4 98v96q0 49 30.5 66.5t71.5 19.5q47 2 88 3t81 1t82 1t89 1q49 0 66.5 -23.5t19.5 -64.5q0 -68 2 -154.5t4 -178t4 -180.5t4.5 -160.5t3.5 -119.5t3 -59q-4 -39 -45 -48 t-101 -11h-11q-62 0 -94 20q-30 21 -30 81v14q-33 -20 -56.5 -35t-45.5 -27q-109 -56 -216 -56q-34 0 -68 6q-140 24 -239 146q-59 76 -97 163t-60.5 179.5t-29.5 187.5q-4 51 -4 101q0 44 3 86zM172 652v-16q0 -102 22 -190q25 -96 74 -165.5t115 -90.5q-78 68 -107.5 149 t-38 169t-9.5 178t-19 180q-35 -102 -37 -214zM752 1681q-1 -6 -1 -12q0 -32 19 -51q23 -21 59 -37q-2 43 -12 71t-39 44q-4 2 -14 -4t-12 -11z" />
<glyph unicode="H" horiz-adv-x="1302" d="M35 1022v329.5v247v107.5q0 45 21.5 64.5t65.5 25.5q29 4 68 4q20 0 42 -1q66 -3 153 -3q29 -6 42 -23.5t18.5 -40t4.5 -46t-1 -44.5q-3 -109 -3 -218v-20q0 -99 5 -202q2 -48 15 -70q12 -20 66 -20h11q113 2 173 7t87.5 31t32 81t4.5 158v274q0 18 1 40.5t9 43t27.5 35 t56.5 14.5h240q37 0 56 -20.5t26.5 -49t8.5 -58.5t1 -48q0 -59 -2 -174t-5.5 -256t-7.5 -295t-7 -295t-4 -255t-1 -173q0 -29 -4 -59.5t-16.5 -56t-35 -42t-59.5 -16.5h-39.5t-68.5 -1t-71 -1h-42q-25 0 -38 16.5t-19 45t-6 66.5v79q-2 135 -2 267v265v12q0 37 -12 53 q-14 18 -66 21q-81 3 -137 3q-27 0 -49 -1q-66 -2 -95.5 -29.5t-34 -88t-4.5 -173.5q0 -43 1 -102t1 -120.5t1 -120t1 -103.5v-8q0 -40 -17 -60q-19 -22 -73 -22h-66.5t-64.5 2q-43 0 -76.5 1t-56 12.5t-35 35t-12.5 68.5q-4 84 -5 231.5t-2 321.5t-1 354zM150 1500 q6 -58 18 -114q-4 29 4 56.5t16 57.5q8 27 8 56v8q-1 34 -24 72q-22 -65 -22 -116q-1 -10 0 -20zM1018 175q0 -9 7 -14t30 -5q25 2 42 13t17 38q2 25 -1 49.5t-40 28.5q-20 2 -29.5 -4.5t-12.5 -17.5t-3 -24.5t-4 -25.5q0 -8 -3 -18.5t-3 -19.5z" />
<glyph unicode="I" horiz-adv-x="530" d="M34 1619v52q0 44 1 55q2 25 17.5 39.5t38 20.5t49 7t53.5 3q39 2 79 4q11 1 22 1q28 0 53 -4q36 -5 64.5 -21.5t43.5 -53.5q10 -29 12 -59t2 -59v-173v-254.5t-1 -294t-1 -295t1 -255t3 -174.5v-6q0 -73 -44 -115q-46 -43 -167 -49q-18 -1 -33 -1q-43 0 -71 8 q-38 11 -60 32.5t-29.5 51.5t-7.5 64q-2 117 -6 276t-7 329t-5 338.5t-4 305t-3 227.5zM198 1514q5 -98 15 -194q11 -98 21 -194q9 -81 8 -163v-31q6 98 13 195.5t7 194.5t-12 194.5t-43 193.5q-10 -72 -10 -144q0 -26 1 -52z" />
<glyph unicode="J" horiz-adv-x="1071" d="M29 705v15q0 54 27 79q30 28 112 30q92 0 142 -2t74 -20.5t29 -61.5t9 -122q0 -18 -1 -38t3 -38q4 -16 4 -37t5 -38t20.5 -28.5t52.5 -9.5q59 4 80.5 40t21.5 83q-1 115 -1 228v114q1 170 1 342q-2 109 -6 214.5t-6 213.5q0 59 22.5 87t59.5 37q33 8 74 8h9h30q30 0 59 1 q84 -4 116 -32q31 -27 31 -91v-8q-1 -18 -1 -44q0 -40 2 -98q3 -97 7.5 -221t8.5 -263.5t5 -268.5v-63q0 -93 -2 -175q-3 -108 -11 -169q-25 -168 -134.5 -264.5t-304.5 -106.5q-34 -2 -65 -2q-72 0 -128 10q-81 14 -138.5 53t-93.5 103.5t-58 159.5q-23 96 -37 190t-18 193 zM448 270.5q6 -10.5 33 -22.5q20 -8 39 -8q25 0 50 13q44 23 77 58q4 4 8 13.5t17 33.5q-29 -10 -45.5 -14t-28.5 -8q-23 -6 -42 -13.5t-42 -11.5q-20 -4 -37.5 -9t-26 -13t-2.5 -18.5zM543 127q23 -2 45 -2q149 0 221 84q58 68 58 186q0 48 -9 103v-11q0 -65 -22 -117 q-23 -55 -66 -99t-102 -78.5t-125 -65.5zM732 1346q5 -97 14.5 -194t18.5 -194q7 -78 7 -157v-35q4 96 10 194q5 83 5 166v27q-1 96 -11 193.5t-37 193.5q-8 -69 -8 -138q0 -28 1 -56z" />
<glyph unicode="K" horiz-adv-x="1191" d="M31 78v121v201.5t1 254t1 277.5v271t1 237.5t2 174t1 81.5q2 37 6 63.5t45 36.5q29 6 81 10q26 2 51.5 2t51.5 -2q50 -4 88.5 -18t38.5 -43q-4 -47 -6 -112.5t-3 -136.5t-2 -142.5t-1 -133v-105.5v-58q2 -25 7 -47.5t34 -24.5q37 -4 58.5 -3t36 9t27.5 27.5t36 54.5 q41 96 83 207t76.5 207t58 162.5t30.5 76.5q6 12 14 26.5t19.5 27t24.5 17.5t30 -1q25 -10 65.5 -19.5t79.5 -22.5t67.5 -29.5t28.5 -38.5q2 -18 -4 -34l-12 -32q-8 -18 -26.5 -71.5t-42 -124t-49 -148.5t-48.5 -143.5t-38 -111.5t-17 -50q-14 -25 -24.5 -58.5t-13.5 -71.5 q-1 -14 -1 -29q0 -24 3 -48q5 -39 21 -76q18 -35 45 -108.5t60 -160.5t67.5 -175t67.5 -156q16 -35 12 -53.5t-26.5 -25.5t-61.5 -9t-88 -4q-53 -2 -87 -2t-54.5 5t-31.5 15.5t-19 26.5q-23 43 -56.5 117.5t-70.5 156.5t-69 155t-50 110q-12 27 -43 62.5t-60 39.5h-2 q-35 -4 -45 -26q-7 -16 -7 -42q0 -10 1 -22q2 -31 4 -103.5t3 -152.5t2 -152.5t4 -103.5q0 -35 -6.5 -52.5t-14.5 -23.5t-16.5 -6h-10.5q-12 0 -56 -1t-93 -1h-93h-57q-16 0 -22 29.5t-6 52.5zM280 218v-9q0 -33 6 -65q7 -36 27 -74q18 68 18 134q-1 8 -1 16q-2 74 -25 151 q-8 -39 -16 -77t-9 -76z" />
<glyph unicode="L" horiz-adv-x="819" d="M35 1460v152.5v73.5q-1 10 -1 19q0 35 12 65q13 31 63 31q8 0 18 -1h16q26 0 65 4q31 4 62 3q20 0 40 -1q50 -4 87 -25.5t37 -78.5v-140.5t-1 -222.5t-1 -263t-1 -263t-2 -222t-1 -140q0 -51 20 -83q18 -30 66 -30h6q54 2 95 2t68 -2q54 -4 74.5 -25.5t20.5 -65.5v-118 q0 -72 -29.5 -101.5t-97.5 -29.5q-51 0 -109.5 -1t-117.5 -1h-115.5h-101.5q-94 0 -132 38q-33 33 -33 107q0 12 1 25q0 55 -1 147.5t-2 205t-1 239.5t-1 252t-2 241.5t-1 208.5zM215 1708q39 -16 76 -32.5t80 -37.5q-29 66 -59 80q-11 5 -28 4q-27 0 -69 -14zM265 658v-10 q-1 -33 5 -65q6 -38 27 -75q19 64 19 126v24q-4 74 -25 151q-8 -37 -16.5 -75t-9.5 -76z" />
<glyph unicode="M" horiz-adv-x="1683" d="M42 906q2 206 2 420q0 143 -1 290q0 25 -1 55.5t5 58t21.5 47t48.5 19.5h146.5t112.5 -11t80.5 -39t51.5 -83q20 -66 49 -152t61.5 -179t65.5 -188t63.5 -181t56 -155t42.5 -110q31 78 67.5 177.5t73.5 202t74 203.5t67.5 185t54 143.5t36.5 80.5q14 33 25 54t23.5 32.5 t27 15.5t36.5 4h223q49 0 74 -34t25 -95q-1 -258 -1 -513v-255q1 -381 1 -766q0 -35 -6.5 -71.5t-38.5 -47.5q-42 -12 -104 -15q-20 -1 -41 -1q-41 0 -77 4q-56 6 -95.5 21.5t-39.5 39.5q4 227 13.5 460t13.5 474q-6 -10 -26.5 -58t-49 -116.5t-62.5 -149.5t-65 -159 t-57.5 -142.5t-38.5 -101.5q-2 -6 -9 -19t-23.5 -25.5t-43 -21.5t-65.5 -9q-41 2 -74 19t-51 56q-18 33 -47 106t-65 170t-77 210.5t-86 224.5q-2 -33 -3 -97.5t-2 -146.5t-1 -173t-1 -176t-2 -158.5t-1 -120.5q1 -10 1 -19q1 -54 -21 -74q-22 -21 -75 -20h-9q-68 2 -119 5 t-87 20.5t-55.5 57.5t-19.5 118q-2 209 -2 410q0 152 1 299zM152 203q2 -14 5.5 -27.5t32.5 -9.5q31 4 29 19.5t-6 31.5q-35 146 -35 293q0 108 19 217q16 78 16 156q0 98 -25 194q-25 -221 -36 -437q-6 -108 -6 -217.5t6 -219.5z" />
<glyph unicode="N" horiz-adv-x="1288" d="M43 201q-2 182 -2 359.5t2 349.5q3 229 3 468q0 120 -1 242q0 25 -1 55.5t5 58t23.5 47t54.5 19.5h156.5t108.5 -11t73 -40t49 -84q27 -76 63.5 -177.5t75.5 -210t79 -216t72 -194.5t55.5 -145t29.5 -69q-2 121 -6 262.5t-8.5 286t-8.5 281.5t-6 250q0 25 36 41t88 22 q31 4 65 4q23 0 47 -2q60 -4 110 -16q37 -10 44 -47t7 -70q0 -387 -1 -768v-254q0 -255 1 -512q0 -131 -110 -131h-197q-25 0 -42 4t-30.5 15.5t-26.5 32t-30 54.5q-23 33 -66.5 132.5t-97 228.5t-112 267t-109.5 249q-2 -33 -3 -97.5t-2 -145.5t-2 -172t-2 -176t-2 -158.5 t-1 -120.5q1 -9 1 -17q-1 -58 -25 -78q-23 -19 -74 -19q-9 0 -19 1q-76 2 -126 5t-80.5 20.5t-44 57.5t-13.5 118zM141 221q2 -43 7.5 -71.5t17.5 -47t31.5 -33t54.5 -30.5q-16 53 -42 97t-69 85zM520 1245q37 -111 81 -214t122 -193q-43 106 -86 210.5t-88 208.5 q-9 -4 -29 -12zM938 1720q27 -37 56.5 -44t60 -3t60.5 11.5t56 -5.5q-51 43 -109 49q-17 2 -36 2q-42 0 -88 -10z" />
<glyph unicode="O" horiz-adv-x="1253" d="M33 944q6 61 10 128t14.5 136.5t26.5 140t47 140.5q49 119 140 194.5t200 109.5q89 28 182 28q21 1 41 -1q114 -8 213 -53q68 -33 109 -84t67.5 -112.5t42 -129t31.5 -132.5q46 -195 46 -388v-9q-1 -198 -32 -396q-23 -145 -86 -255.5t-157 -179.5t-213 -89 q-42 -7 -87 -8q-80 0 -167 24q-100 27 -184 108t-130 193q-59 143 -89 296q-26 135 -25 295v44zM266 1397q78 55 157 110.5t167 116.5q-18 3 -37 3q-35 0 -69 -10q-54 -15 -100 -47t-78 -78t-40 -95zM317 537q23 -117 73 -164t155 -49q-70 49 -130.5 95t-97.5 118zM418 886 v-22q0 -127 26 -252q20 -92 69.5 -144t123.5 -54q39 0 66.5 17.5t47 47t32 67.5t20.5 79q12 49 12 103t4 108v33q0 74 -7 145q-9 86 -38 170q-29 78 -79 132q-48 52 -110 52h-5q-31 -2 -54.5 -21.5t-41 -49t-29 -65.5t-15.5 -73q-20 -135 -22 -273zM674 1507 q14 -41 37.5 -68.5t48 -47t50.5 -37t46 -37.5q-31 53 -71 101t-111 89zM684 223q70 2 119 17.5t83 45t55.5 76t33.5 111.5q-23 -45 -53.5 -79t-68.5 -62.5t-81 -55t-88 -53.5z" />
<glyph unicode="P" horiz-adv-x="1138" d="M31 80v120v199.5t1 250.5t1 273.5v266.5t1 233.5t2 172t1 79.5q2 35 6 62.5t45 38.5q47 10 125 17t160 8h40q59 0 115 -3q74 -3 115 -10q49 -10 100.5 -29.5t98.5 -49.5t86 -67.5t63 -85.5q45 -92 65 -212q14 -81 14 -163q0 -40 -3 -80q-10 -122 -55 -230.5t-129 -172.5 q-29 -29 -82 -50t-115 -36q-62 -14 -120 -21q-46 -5 -77 -5h-18q-8 1 -14 1q-39 -1 -47 -21q-5 -15 -6 -39q0 -15 2 -33q-2 -92 -3 -175v-138t3 -99q0 -35 -6.5 -51.5t-13.5 -23.5t-15.5 -7h-12.5h-299q-16 0 -22 28.5t-6 51.5zM389 958q0 -25 5 -47t36 -24q31 -3 62 -3h15 q38 1 72.5 11t66 32.5t56.5 63.5q25 39 31 97q3 29 3 58q0 28 -3 58q-6 60 -23.5 113t-43.5 88q-29 37 -74 67q-40 26 -76 25h-10q-43 -2 -64.5 -13t-31 -34t-10.5 -57.5t-3 -81.5q-2 -23 -3 -71t-3 -103.5t-2 -105.5v-73zM469 1663q55 -25 108.5 -49t114.5 -53 q-20 47 -39.5 74.5t-45 39t-58.5 8t-80 -19.5z" />
<glyph unicode="Q" horiz-adv-x="1253" d="M33 936q8 121 23.5 259t74.5 278q51 117 142.5 190.5t200.5 106.5q92 29 188 29q17 0 34 -1q115 -6 213 -51q68 -31 110 -82t69.5 -111.5t43 -128t31.5 -131.5q45 -185 45 -372v-16q-2 -195 -32 -390q-20 -141 -89 -256q18 -18 34 -32.5t26 -24.5q40 -38 40 -78 q0 -36 -40 -80q-38 -43 -69 -43q-6 0 -11 1q-35 9 -68 40l-55 53q-96 -72 -219 -96q-46 -8 -95 -8q-81 0 -169 24q-49 12 -98.5 39t-93.5 65t-79.5 86t-58.5 103q-59 141 -81 294q-18 129 -18 277q0 28 1 56zM266 1382l326 224q-19 3 -38 3q-34 0 -70 -9q-54 -15 -100 -47.5 t-78 -76.5t-40 -94zM283 272q63 -125 143 -158q39 -17 89 -17q53 0 118 18q-49 0 -93 14t-86 35.5t-84 49t-87 58.5zM394 664q7 -80 29.5 -136.5t61.5 -85.5q37 -28 90 -28h7q9 -1 18 -1q36 0 67 14q38 17 66 42q39 35 60.5 84t37.5 98q16 57 17.5 118.5t5.5 121.5 q0 98 -6 181t-33 142.5t-83 89.5q-50 27 -136 27h-23q-47 0 -73.5 -29.5t-43 -73.5t-25.5 -93.5t-17 -90.5q-10 -51 -11.5 -100t-5.5 -102q-6 -58 -6 -109q0 -36 3 -69zM676 1491q14 -41 36.5 -67.5t48 -47t51.5 -37t46 -36.5q-29 53 -69.5 100t-112.5 88z" />
<glyph unicode="R" horiz-adv-x="1169" d="M31 80v120v199.5v250.5t1 273.5t1 266.5t1 233.5t1 172t2 79.5v33.5t4 29t14.5 24t30.5 14.5q47 10 117.5 17t143.5 8h36q53 0 103 -3q66 -3 106 -10q98 -23 180 -58.5t143 -123.5q61 -86 95 -199q30 -101 30 -209v-26q-4 -122 -55 -241.5t-162 -217.5q-10 -23 2.5 -41.5 t20.5 -30.5q18 -35 48 -90t63.5 -122t68.5 -138.5t68 -138.5q22 -44 22 -75q0 -19 -8 -34q-21 -39 -123 -43q-15 -1 -29 -1q-35 0 -62 7q-38 10 -65.5 29.5t-46 46.5t-32.5 57q-23 43 -47.5 92.5t-50 98.5t-48 95t-41.5 83q-12 27 -29.5 48.5t-46.5 25.5q-4 2 -5 2t-5 2h-8 q-8 1 -15 1q-40 -1 -52 -21q-10 -18 -10 -51q0 -10 1 -21q2 -31 3 -87.5t2 -118t2 -118.5t3 -88q0 -35 -6 -51.5t-13 -23.5t-15.5 -7h-12.5h-297q-18 0 -23 28.5t-5 51.5zM387 958q0 -25 6 -47t35 -24q31 -3 62 -3h15q38 1 72.5 11t66 32.5t56.5 63.5q25 39 31 97q3 29 3 58 q0 28 -3 58q-6 60 -23.5 113t-43.5 88q-29 37 -73 67q-39 26 -75 25h-10q-43 -2 -65.5 -13t-32 -34t-10.5 -57.5t-3 -81.5q0 -23 -2 -71t-4 -103.5t-2 -105.5v-73zM467 1663q55 -25 108.5 -49t116.5 -53q-20 47 -40.5 74.5t-46 39t-58.5 8t-80 -19.5z" />
<glyph unicode="S" horiz-adv-x="1173" d="M35 476q0 34 16.5 63.5t50 57.5t86.5 58q37 18 67 19.5t55.5 -10t48 -33t44.5 -47.5q23 -23 37.5 -53.5t32.5 -55.5q23 -31 60.5 -50t77.5 -25q15 -2 29 -2q25 0 48 6q37 10 62 34q27 27 27 57q1 7 -1 14q-8 38 -41 64q-29 23 -62.5 43.5t-68.5 30.5q-109 47 -205 113.5 t-176 159.5q-77 86 -99 208q-11 61 -11 122q-1 62 11 123q22 122 87 225.5t168 152.5q65 31 135 53q51 17 103 17q18 0 36 -2q90 0 172 -43t143.5 -113t95.5 -160q29 -76 29 -156q0 -14 -1 -28q-4 -39 -14.5 -62.5t-51.5 -31.5q-29 -6 -51.5 -10.5t-47 -6.5t-53 -2t-67.5 2 q-18 2 -36.5 17.5t-29.5 38.5q-10 23 -21 43t-28 36q-28 29 -66 39q-9 2 -17 3q-27 0 -50 -27q-10 -12 -14 -35t-2 -47.5t9 -47t17 -34.5q47 -53 100 -88.5t119 -58.5q137 -45 214 -125t109 -176q27 -79 27 -162q0 -17 -2 -34q-6 -101 -32 -188q-31 -102 -77 -168.5 t-103.5 -108.5t-126 -62.5t-146.5 -28.5q-39 -5 -79 -5q-48 0 -97 7q-90 12 -173 56t-149.5 127t-105.5 218q-12 45 -12 79zM195 520q-1 -7 -1 -13q0 -31 18 -49q21 -22 60 -40q-2 45 -12 72.5t-39 44.5q-4 2 -15 -4.5t-11 -10.5zM446 881q39 -53 92.5 -81t110 -50.5 t111.5 -47t100 -71.5q-31 74 -81 108.5t-107.5 55t-117 36t-108.5 50.5zM756 889q31 -23 61.5 -45.5t58 -50t52 -63.5t45.5 -83q-6 106 -59.5 164t-157.5 78z" />
<glyph unicode="T" d="M25 1615.5q0 63.5 28 129.5q16 37 43 45t58 8q252 2 499.5 3t497.5 3q41 0 71 -16q29 -15 29 -60v-6q-1 -10 -1 -22q0 -22 3 -48q4 -40 4 -80t-9 -76t-38 -54q-46 -31 -112 -36q-30 -2 -56 -2q-32 0 -59 3q-37 4 -58.5 -11.5t-33.5 -43t-15.5 -62.5t-3.5 -69 q2 -139 2 -263v-245v-245t3 -263q0 -63 -17.5 -109.5t-73.5 -70.5q-62 -27 -128 -28h-6q-63 0 -126 21q-16 6 -23 19.5t-9 30t-1 34t1 33.5v456.5t-2 455.5q0 29 -1.5 51t-4.5 41.5t-6 42t-5 51.5q-6 63 -12 99t-22.5 51.5t-51.5 17.5q-18 1 -41.5 1t-54.5 -1 q-16 0 -30.5 -1t-31.5 -1h-15q-56 -1 -98 25q-46 30 -69.5 79t-23.5 112.5zM147 1663q54 -21 100 -20q19 1 35 3q58 12 111 35q-29 2 -57.5 7.5t-58 6.5t-62.5 -6.5t-68 -25.5zM708 466v-9q0 -33 6 -66q7 -37 27 -74q18 68 18 134q-1 8 -1 17q-2 75 -25 150 q-8 -39 -16 -76.5t-9 -75.5z" />
<glyph unicode="U" horiz-adv-x="1208" d="M38 1241q4 152 4 300q0 59 -1 118q0 55 21.5 82.5t56.5 39t76 13.5t81 6q19 2 36 2q153 0 153 -147q0 -104 1 -227t2 -249t2 -249t1 -228q0 -63 8 -128.5t45 -118.5q18 -27 53 -38q18 -6 38 -6q18 0 38 5q35 8 60.5 28.5t29.5 49.5q4 20 7.5 59t4.5 83t3 84t2 60 q4 113 5 233q0 60 1 118q0 59 -1 115q-1 112 -2 211t-1 173q0 27 3 56.5t15.5 54t38 42t72.5 17.5q94 0 144 -2t75 -16.5t32 -46t13 -88.5q4 -55 7 -147.5t5 -201t3 -223t1 -216t-2 -180.5t-6 -116q-8 -100 -37.5 -195.5t-86 -172t-141.5 -129t-204 -66.5q-36 -4 -71 -4 q-45 0 -91 6q-82 10 -154.5 41t-132 83t-95.5 128q-63 137 -83 279.5t-26 289.5q-5 126 -5 255q0 81 2 163zM268 324q64 -123 144 -158q40 -18 91.5 -18t114.5 18q-49 2 -93 15.5t-86 35t-84 49t-87 58.5z" />
<glyph unicode="V" horiz-adv-x="1259" d="M41 1669q-3 15 -3 28q0 37 20 65q28 38 100 38h145t82 -11t40 -40t21 -84q12 -76 29 -177.5t35 -210t36.5 -216t34 -194.5t28 -145t16.5 -69q23 121 45 262.5t45.5 286t46 281.5t43.5 250q4 25 47 41q44 16 102 22q36 4 72 4q26 0 50 -2q64 -4 110 -16q33 -10 33 -47 t-7 -70q-74 -387 -148.5 -768t-145.5 -766q-23 -131 -136 -131h-319q-25 0 -41 4t-27.5 15.5t-19.5 32t-19 54.5q-8 16 -26.5 92t-42 190t-51 253t-54.5 281q-66 334 -141 747zM268 1645q-2 -18 -3 -34q-1 -23 5 -43q8 -34 21.5 -63.5t29 -56.5t23.5 -55q-2 61 -16.5 121.5 t-59.5 130.5z" />
<glyph unicode="W" horiz-adv-x="2052" d="M41 1669q-3 15 -3 28q0 37 20 65q28 38 100 38h145t82 -11t40 -40t21 -84q12 -76 30 -177.5t36 -210t36.5 -216t34 -194.5t27 -145t17.5 -69q20 121 43.5 262.5t46 286t45 281.5t43.5 250q4 16 21.5 27.5t45.5 21.5q31 18 78 18q113 0 168.5 -1t79.5 -23q12 -8 14 -17 q18 -31 27 -94q12 -76 29.5 -177.5t36 -210t37 -216t34 -194.5t27.5 -145t16 -69q23 121 45.5 262.5t46 286t45 281.5t41.5 250q4 25 47.5 41t101.5 22q35 4 72 4q26 0 50 -2q64 -4 110 -16q35 -10 35 -47t-6 -70q-74 -387 -148.5 -768t-146.5 -766q-25 -131 -135 -131h-320 q-25 0 -41 4t-27 15.5t-20.5 32t-19.5 54.5q-6 12 -18.5 63.5t-29 128.5t-37 175t-40.5 207q-27 -137 -53.5 -274.5t-50.5 -274.5q-25 -131 -138 -131h-317q-25 0 -41 4t-28.5 15.5t-20.5 32t-19 54.5q-8 16 -25.5 92t-41 190t-52 253t-55.5 281q-66 334 -141 747zM135 1681 q16 -115 40 -224t83 -212q-23 111 -46.5 222.5t-45.5 222.5q-8 -2 -15.5 -4.5t-15.5 -4.5zM1106 1588q6 -46 45 -95q6 30 6 56q0 25 -6 49q-12 46 -41 96q-6 -37 -6 -69q0 -20 2 -37z" />
<glyph unicode="X" horiz-adv-x="1464" d="M49 1768q6 36 73 36h7q90 -2 147.5 -3t94.5 -8t59.5 -25.5t43 -52.5t47 -90t69.5 -138q6 -10 22.5 -41t36 -67t36.5 -66.5t24 -40.5q14 41 34.5 99.5t40 115.5t35 105t21.5 71q16 68 71 104.5t172 36.5q119 0 162 -20q40 -18 40 -53v-5q-3 -40 -33.5 -98.5t-55.5 -136.5 q-31 -94 -60.5 -177t-61.5 -164t-66.5 -164t-75.5 -179q43 -88 94 -186.5t101.5 -196.5t96.5 -188.5t81 -159.5q20 -36 20 -52q1 -8 -3 -12q-12 -12 -58 -12q-27 0 -67 -1t-80 -1h-71.5h-37.5q-43 8 -61.5 30.5t-45.5 75.5q-8 14 -26.5 60.5t-40 102t-44 109.5t-36.5 85 q-12 -29 -40 -83t-56.5 -112.5t-54 -112t-38.5 -77.5q-16 -51 -51 -63.5t-104 -12.5q-82 0 -130 -2q-24 -1 -41.5 -1t-27.5 1q-57 8 -61 30v7q0 23 20 69q20 49 54 130t78 185.5t94 228.5t106 257q-57 111 -117.5 224.5t-118 217t-104.5 186.5t-78 130q-36 59 -36 95 q0 5 1 10zM253 114.5q-1 -12.5 28 -8.5q33 4 35.5 16.5t5.5 24.5q16 109 58 215.5t114 215.5q96 147 118 292q-104 -184 -195 -365t-159 -368q-4 -10 -5 -22.5zM483 166q2 -14 8.5 -29.5t30.5 -9.5q39 8 55.5 22.5t23.5 32t10.5 37t13.5 35.5q6 10 6 22.5t4 24.5 q-86 -23 -121 -55q-31 -28 -31 -70v-10z" />
<glyph unicode="Y" horiz-adv-x="1267" d="M49 1768q6 36 74 36h8q90 -2 147.5 -3t94.5 -8t58.5 -25.5t43 -52.5t47 -90t68.5 -138l74 -141q41 102 68.5 183t39.5 134q8 33 13.5 59.5t18.5 45t43 27.5t87 9q137 0 211 -3t97 -31q11 -15 11 -40q0 -23 -9 -54q-21 -64 -70 -189q-78 -199 -165 -409t-175 -414 q-47 -111 -93.5 -216.5t-91.5 -203.5q-18 -43 -37.5 -85t-38.5 -83q-14 -51 -49 -63.5t-104 -12.5q-82 0 -144 -2q-32 -1 -52 -1t-29 1q-29 4 -43.5 11t-17.5 19.5t3 31t17 44.5q18 47 54 131t82 192t97 231.5t105 250.5q-59 117 -119 230.5t-113 213t-98 179.5t-76 131 q-38 60 -38 96q0 5 1 9zM49 1768q6 36 74 36h8q90 -2 147.5 -3t94.5 -8t58.5 -25.5t43 -52.5t47 -90t68.5 -138l74 -141q41 102 68.5 183t39.5 134q8 33 13.5 59.5t18.5 45t43 27.5t87 9q137 0 211 -3t97 -31q11 -15 11 -40q0 -23 -9 -54q-21 -64 -70 -189 q-78 -199 -165 -409t-175 -414q-47 -111 -93.5 -216.5t-91.5 -203.5q-18 -43 -37.5 -85t-38.5 -83q-14 -51 -49 -63.5t-104 -12.5q-82 0 -144 -2q-32 -1 -52 -1t-29 1q-29 4 -43.5 11t-17.5 19.5t3 31t17 44.5q18 47 54 131t82 192t97 231.5t105 250.5q-59 117 -119 230.5 t-113 213t-98 179.5t-76 131q-38 60 -38 96q0 5 1 9zM948.5 1296.5q-0.5 6.5 1.5 10.5q47 141 121 286q10 16 17.5 35t17.5 35q-7 -45 -25 -90q-6 -12 -12 -25.5t-14 -25.5q-33 -53 -50.5 -104.5t-25.5 -104.5q0 -6 -2 -12.5t-16 -8.5q-12 -2 -12.5 4.5zM948.5 1296.5 q-0.5 6.5 1.5 10.5q47 141 121 286q10 16 17.5 35t17.5 35q-7 -45 -25 -90q-6 -12 -12 -25.5t-14 -25.5q-33 -53 -50.5 -104.5t-25.5 -104.5q0 -6 -2 -12.5t-16 -8.5q-12 -2 -12.5 4.5z" />
<glyph unicode="Z" horiz-adv-x="1019" d="M54 50q-9 16 -9 43q0 31 12 77v2q0 4 19.5 58.5t51.5 140.5t73 193.5t83 220t83 221t73.5 194.5t53 140.5t22.5 60.5q8 35 -2 52t-28.5 25.5t-40 8.5h-31.5q-10 2 -31 1t-31 -1q-72 2 -118 4t-73.5 21.5t-37.5 64.5t-10 135v12q4 74 67 74q74 0 169 1t195.5 1h197.5h173 q23 0 37.5 -12t22.5 -32.5t10 -46.5t0 -50q0 -25 -25.5 -104.5t-66.5 -192.5t-92 -249t-104.5 -274.5t-103.5 -267.5t-89 -229h172q54 2 95 2t68 -2q54 -4 74.5 -25.5t20.5 -65.5v-118q-2 -72 -31 -101.5t-96 -31.5h-438q-12 -2 -27.5 -2h-38.5l-4 2h-82h-35h-6h-4 q-33 0 -51 6q-47 10 -67 44zM178 1665q43 20 80 37.5t76 34.5q-40 14 -68 14q-16 1 -28 -5q-30 -14 -60 -81zM342 264q56 66 64 140q7 60 6 123v30q-34 -67 -54 -141q-16 -61 -17 -126q0 -13 1 -26z" />
<glyph unicode="[" horiz-adv-x="968" d="M34 1808q1 2 11 4q6 27 18 56q16 37 43 45t58 8q84 0 140 1t100.5 1t81 1t79.5 1t99.5 1t140.5 1q41 0 71.5 -15.5t28.5 -66.5q-2 -31 2 -70.5t4 -79.5t-9 -76t-38 -54q-23 -16 -64.5 -24.5t-87.5 -11.5t-89 -3t-68 4q-37 4 -58.5 -11.5t-33.5 -43t-15.5 -62.5t-3.5 -70 q2 -98 2 -229v-267v-263v-213q6 -47 13.5 -73t26 -37t51 -12t88.5 1q16 0 30.5 1t30.5 1q66 2 113 -26.5t70.5 -78t23.5 -113t-29 -128.5q-16 -37 -42.5 -45t-57.5 -8q-84 0 -139.5 -1.5t-97.5 -1.5t-76.5 -1t-76.5 -1t-98.5 -1t-138.5 -1q-20 0 -39.5 3.5t-33 12.5 t-21.5 24t-6 42q2 51 3 161t2 255t2 317.5t0 348.5t-1 347t-2 316q-12 53 0 113q-12 8 2 16v2q-10 2 -9 4zM524 -31q29 -4 57.5 -8t58.5 -5t62.5 6.5t67.5 25.5q-76 29 -134 17.5t-112 -36.5z" />
<glyph unicode="\" horiz-adv-x="907" d="M41 1646.5q-4 30.5 8 58.5t46 51.5t95 41.5q16 4 32 5t31 -6t30.5 -26.5t27.5 -56.5q18 -57 57.5 -165.5t88.5 -240.5t102 -275.5t102.5 -275.5t89.5 -239t60 -162q14 -41 24.5 -83t8.5 -79.5t-21.5 -67.5t-68.5 -44q-25 -8 -51.5 -16.5t-49 -10.5t-42 5.5t-29.5 29.5 q-6 14 -38 100t-78 215.5t-101.5 288t-111.5 319.5t-108.5 310.5t-89.5 259.5q-10 33 -14 63.5zM408 907q37 -90 60.5 -184t47 -189.5t52 -187.5t77.5 -180q-4 100 -26.5 195.5t-56.5 187.5t-74.5 180t-79.5 178z" />
<glyph unicode="]" horiz-adv-x="968" d="M57 1695q0 40 4.5 80t1.5 70q-4 51 28 66.5t73 15.5q82 0 139 -1t100 -1t80 -1t81 -1t100.5 -1t140.5 -1q31 0 57.5 -8t42.5 -45q12 -29 19 -56q10 -2 11 -4t-9 -4v-2q14 -8 2 -16q12 -59 0 -113q-2 -145 -2 -316t-1 -347t0 -348.5t2 -317.5t2 -255t3 -161 q2 -53 -29 -67.5t-72 -14.5q-84 0 -139 1t-97 1t-77 1t-77 1t-97 1.5t-139 1.5q-31 0 -57.5 8t-43.5 45q-29 66 -28.5 129t24 112.5t70.5 78t113 26.5q16 0 30.5 -1t30.5 -1q55 -2 88 -1t51.5 12t25.5 37t13 73v213v263v267t2 229q0 35 -3 70t-15 62.5t-33.5 43t-58.5 11.5 q-25 -4 -68 -4t-89 3t-88 11t-65 25q-29 18 -38 54t-9 76zM199 -12q35 -18 67.5 -25.5t62 -6.5t58.5 5t57 8q-53 25 -111 36.5t-134 -17.5z" />
<glyph unicode="_" horiz-adv-x="1296" d="M31 -90q4 23 14 27t37 2q29 0 113 -1t196.5 -3.5t239.5 -3.5t240.5 -1t201.5 1t121 6q68 10 68 -68t-2.5 -114t-15.5 -48t-44 -9t-90 3q-55 0 -141 1t-186.5 2t-207 2t-204 3t-177 4t-126.5 4q-25 -2 -31 9.5t-6 35.5v38v47.5v41v21.5zM82 -131q4 -18 15.5 -17t21.5 5 q31 6 90 10t133 6t152.5 3t152.5 0t132.5 -4t90.5 -7q125 -18 258 4q-53 4 -135 8t-177 7t-196.5 5t-196.5 3.5t-177 1.5t-135 -3q-10 -2 -21.5 -4t-7.5 -18zM973 -230q6 -1 42 0t122 5q8 0 15 6t5 14q-4 12 -11 16.5t-16.5 4.5t-17.5 -2t-16 0q-6 2 -12.5 0t-10.5 -2 q4 -10 -13.5 -17.5t-39 -12.5t-37.5 -8t-10 -4z" />
<glyph unicode="`" horiz-adv-x="542" d="M45 2065q6 42 49 83q47 47 88 38t86 -50q37 -43 70 -86t96 -78q20 -12 11 -24.5t-36.5 -22.5t-70.5 -14t-88 1t-89 19.5t-75 44.5q-47 47 -41 89zM152 2111q25 -51 108 -59q-12 37 -32.5 59.5t-61.5 24.5q-4 0 -11.5 -10t-2.5 -15z" />
<glyph unicode="|" horiz-adv-x="372" d="M33 442.5v328.5v339v305t1 228.5t3 107.5q2 25 17.5 38t38 18t50 4t54.5 -1q49 2 78.5 -20.5t44 -57t18.5 -78.5t4 -87q-2 -59 -4 -173t-5 -254.5t-6 -294t-5.5 -293.5t-3.5 -255t1 -176q0 -39 -6 -61.5t-18 -35t-27.5 -16.5t-31.5 -4q-66 -2 -105 11.5t-60.5 36 t-28.5 52t-7 64.5q-2 117 -2 274.5zM110 1502.5q3 -97.5 12 -195t18 -193.5t3 -194q8 96 17.5 193t10.5 194.5t-9 194.5t-39 196q-16 -98 -13 -195.5z" />
<glyph unicode="&#xa8;" horiz-adv-x="630" d="M31 2058q8 59 33.5 94t97.5 31q63 -4 97 -31.5t30 -93.5q-4 -63 -34 -109t-103 -44q-37 0 -58.5 14t-34 35.5t-18.5 48.5t-10 55zM188 2091q0 -6 5.5 -15.5t13.5 -27.5q14 16 23.5 23.5t13.5 12.5t4 11t-4 23q-2 4 -13.5 8t-15.5 0q-14 -14 -20.5 -21.5t-6.5 -13.5z M338 2058q8 59 33.5 94t97.5 31q63 -4 97 -31.5t30 -93.5q-4 -63 -34 -109t-103 -44q-37 0 -58.5 14t-34 35.5t-18.5 48.5t-10 55zM496 2091q0 -6 5 -15.5t13 -27.5q14 16 23.5 23.5t13.5 12.5t4 11t-4 23q-2 4 -13.5 8t-15.5 0q-14 -14 -20 -21.5t-6 -13.5z" />
<glyph unicode="&#xad;" horiz-adv-x="925" d="M31 721v37.5v47v41v21.5q4 23 14 27t37 2q29 0 85 -1t128 -3t150.5 -3t151.5 -1t133.5 1t92.5 5q68 10 68 -68t-2 -113.5t-15.5 -48t-44 -9.5t-90.5 3q-84 0 -173 1.5t-177 4.5t-170 5t-151 6q-25 -2 -31 9t-6 36zM82 827q4 -18 15.5 -17t21.5 5q96 16 190 19.5 t191 -11.5q125 -18 258 4q-162 14 -324 21.5t-323 1.5q-10 -2 -21.5 -4.5t-7.5 -18.5zM602 728q6 -1 42 0t122 5q8 0 15 6.5t5 14.5q-4 12 -11 16t-16 4t-17.5 -2t-16.5 0q-6 2 -12 0t-11 -2q4 -10 -13 -17.5t-38.5 -12.5t-38 -8t-10.5 -4z" />
<glyph unicode="&#xb4;" horiz-adv-x="542" d="M106 1972q63 35 96.5 78t69.5 86q45 41 86 50t88 -38q43 -41 49.5 -83t-40.5 -89q-47 -45 -119 -58t-133.5 -7t-94 24.5t-2.5 36.5zM281 2052q84 8 108 59q4 4 -3 14.5t-11 10.5q-41 -2 -61.5 -24.5t-32.5 -59.5z" />
<glyph unicode="&#xb8;" horiz-adv-x="276" d="M-100.5 -454q12.5 36 71.5 85q41 33 74 21t66 -41q16 -10 28.5 -27.5t28.5 -29.5q16 -16 40.5 -24.5t50.5 -7.5t47.5 11t33.5 29q16 23 8 46t-31 34q-23 12 -44 21t-44 11q-37 8 -76.5 21.5t-76.5 32t-65.5 45t-41.5 63.5q-14 35 3.5 90.5t58.5 102.5l-13 4l244 -37h-4 q2 -20 10 -35.5t29 -19.5q88 -16 144.5 -58.5t87 -95.5t37.5 -114.5t1 -118.5q-8 -66 -28.5 -112t-51 -79t-70.5 -52.5t-87 -33.5q-51 -16 -108.5 -19t-113 15t-105.5 62t-89 124q-27 51 -14.5 87zM-8 -451q0 -25 16.5 -36t40.5 -17q-8 53 -43 66q-4 0 -10 -4.5t-4 -8.5z M104 -201q31 -29 67 -39t73 -17t73.5 -16.5t69.5 -33.5q-29 41 -62.5 57.5t-71.5 22.5t-76 9t-73 17zM295 -160q43 -23 84 -47t76 -78q-16 66 -55 94.5t-105 30.5z" />
<glyph unicode="&#xbf;" horiz-adv-x="1140" d="M62 126.5q9 152.5 83 293.5q12 25 45 59.5t75 75.5t88 87t82 89t58.5 84t18.5 72q-6 51 36 74.5t100 28t115.5 -10t78.5 -41.5q27 -33 21.5 -80t-31 -99t-67.5 -105.5t-91 -98.5q-51 -59 -86 -108t-59.5 -96.5t-42 -98.5t-34.5 -112q-14 -98 -6 -209q6 -74 57.5 -120 t116.5 -38q45 2 82 39q33 33 43 84t8 100q0 57 -12 121l-6 27q10 82 35.5 128t58.5 66.5t70 20.5t68.5 -9.5t54 -24.5t28.5 -26q25 -45 37.5 -114.5t11.5 -149.5t-17.5 -166t-51.5 -166q-39 -66 -83 -110.5t-101.5 -71.5t-134 -35t-181.5 2q-72 6 -140.5 34t-126.5 71 t-101 99t-62 120q-47 162 -38 314.5zM565 1141q0 66 32 116t122 58q43 4 70.5 -8t44 -33.5t26.5 -49.5t18 -56q-4 -61 -33.5 -100.5t-113.5 -41.5q-78 -4 -121 21.5t-45 93.5zM619 1107q1 -7 7 -23q2 -4 16.5 -6t18.5 2q16 16 22.5 24t6.5 14.5t-7 14.5t-18 26 q-16 -18 -26 -25t-15.5 -13.5t-4.5 -13.5zM633 855.5q0 -19.5 6 -31t19.5 -15.5t35.5 -6q-6 70 -57 105q-4 -33 -4 -52.5z" />
<glyph unicode="&#xc0;" d="M48 70.5q-7 27.5 1 68.5q16 92 46 228.5t66 290t73.5 310t70.5 291t57.5 231.5t32.5 130q16 66 23.5 102.5t26 54t58.5 19.5t124 0h27.5h37t35.5 -1t25 -1q47 -2 73.5 -7t41 -20.5t21.5 -43t17 -72.5q78 -362 167 -752.5t173 -753.5q6 -23 11.5 -45t2 -42.5t-19.5 -36 t-57 -21.5q-35 -4 -80 -5t-88 7t-77 29.5t-44 62.5q-8 35 -12 51.5t-9 51.5q-10 90 -60 134t-155 48q-74 2 -121 -11.5t-74.5 -41t-39.5 -67.5t-19 -91q-10 -72 -25.5 -106.5t-40 -48t-59 -13.5t-79.5 -2q-41 -2 -73 4t-51.5 23.5t-26.5 45zM420 2004q6 42 49 83 q47 47 88 38t86 -50q37 -43 70 -86t96 -78q20 -12 11 -24.5t-36.5 -22.5t-70.5 -14t-88 1t-89 19.5t-75 44.5q-47 47 -41 89zM430 934q0 -8 1 -14.5t18 -1.5q18 6 19 14t-1 16q-6 131 51 271q37 100 35 186q-41 -121 -72.5 -237.5t-50.5 -233.5zM527 2050q25 -51 108 -59 q-12 37 -32.5 59.5t-61.5 24.5q-4 0 -11.5 -10t-2.5 -15zM537 700q-8 -35 2 -52t28.5 -23.5t39 -5t36.5 1.5q20 0 43 1t40 9t25.5 25.5t0.5 48.5q-12 49 -22.5 121.5t-22 140t-25.5 115.5t-35 48q-16 0 -31.5 -48t-29 -115.5t-25.5 -141t-24 -125.5zM1094 342q2 -39 4 -77 t10 -74.5t24.5 -71.5t45.5 -66q2 78 -20.5 150.5t-63.5 138.5z" />
<glyph unicode="&#xc1;" d="M48 70.5q-7 27.5 1 68.5q16 92 46 228.5t66 290t73.5 310t70.5 291t57.5 231.5t32.5 130q16 66 23.5 102.5t26 54t58.5 19.5t124 0h27.5h37t35.5 -1t25 -1q47 -2 73.5 -7t41 -20.5t21.5 -43t17 -72.5q78 -362 167 -752.5t173 -753.5q6 -23 11.5 -45t2 -42.5t-19.5 -36 t-57 -21.5q-35 -4 -80 -5t-88 7t-77 29.5t-44 62.5q-8 35 -12 51.5t-9 51.5q-10 90 -60 134t-155 48q-74 2 -121 -11.5t-74.5 -41t-39.5 -67.5t-19 -91q-10 -72 -25.5 -106.5t-40 -48t-59 -13.5t-79.5 -2q-41 -2 -73 4t-51.5 23.5t-26.5 45zM430 934q0 -8 1 -14.5t18 -1.5 q18 6 19 14t-1 16q-6 131 51 271q37 100 35 186q-41 -121 -72.5 -237.5t-50.5 -233.5zM481 1913q63 35 96.5 78t69.5 86q45 41 86 50t88 -38q43 -41 49.5 -83t-40.5 -89q-47 -45 -119 -58t-133.5 -7t-94 24.5t-2.5 36.5zM537 700q-8 -35 2 -52t28.5 -23.5t39 -5t36.5 1.5 q20 0 43 1t40 9t25.5 25.5t0.5 48.5q-12 49 -22.5 121.5t-22 140t-25.5 115.5t-35 48q-16 0 -31.5 -48t-29 -115.5t-25.5 -141t-24 -125.5zM656 1993q84 8 108 59q4 4 -3 14.5t-11 10.5q-41 -2 -61.5 -24.5t-32.5 -59.5zM1094 342q2 -39 4 -77t10 -74.5t24.5 -71.5t45.5 -66 q2 78 -20.5 150.5t-63.5 138.5z" />
<glyph unicode="&#xc2;" d="M48 70.5q-7 27.5 1 68.5q16 92 46 228.5t66 290t73.5 310t70.5 291t57.5 231.5t32.5 130q16 66 23.5 102.5t26 54t58.5 19.5t124 0h27.5h37t35.5 -1t25 -1q47 -2 73.5 -7t41 -20.5t21.5 -43t17 -72.5q78 -362 167 -752.5t173 -753.5q6 -23 11.5 -45t2 -42.5t-19.5 -36 t-57 -21.5q-35 -4 -80 -5t-88 7t-77 29.5t-44 62.5q-8 35 -12 51.5t-9 51.5q-10 90 -60 134t-155 48q-74 2 -121 -11.5t-74.5 -41t-39.5 -67.5t-19 -91q-10 -72 -25.5 -106.5t-40 -48t-59 -13.5t-79.5 -2q-41 -2 -73 4t-51.5 23.5t-26.5 45zM370 1885.5q-19 15.5 7 31.5 q63 35 96 78t70 86q27 23 51.5 38t50.5 13q27 2 51.5 -13t53.5 -38q37 -43 69.5 -86t96.5 -78q27 -16 7.5 -31.5t-64 -23.5t-102.5 -7t-112 19q-53 -18 -110 -19t-101.5 7t-63.5 23.5zM430 934q0 -8 1 -14.5t18 -1.5q18 6 19 14t-1 16q-6 131 51 271q37 100 35 186 q-41 -121 -72.5 -237.5t-50.5 -233.5zM537 700q-8 -35 2 -52t28.5 -23.5t39 -5t36.5 1.5q20 0 43 1t40 9t25.5 25.5t0.5 48.5q-12 49 -22.5 121.5t-22 140t-25.5 115.5t-35 48q-16 0 -31.5 -48t-29 -115.5t-25.5 -141t-24 -125.5zM645 2056q25 -51 109 -59 q-12 37 -32.5 59.5t-61.5 24.5q-4 0 -11.5 -10t-3.5 -15zM1094 342q2 -39 4 -77t10 -74.5t24.5 -71.5t45.5 -66q2 78 -20.5 150.5t-63.5 138.5z" />
<glyph unicode="&#xc3;" d="M48 70.5q-7 27.5 1 68.5q16 92 46 228.5t66 290t73.5 310t70.5 291t57.5 231.5t32.5 130q16 66 23.5 102.5t26 54t58.5 19.5t124 0h27.5h37t35.5 -1t25 -1q47 -2 73.5 -7t41 -20.5t21.5 -43t17 -72.5q78 -362 167 -752.5t173 -753.5q6 -23 11.5 -45t2 -42.5t-19.5 -36 t-57 -21.5q-35 -4 -80 -5t-88 7t-77 29.5t-44 62.5q-8 35 -12 51.5t-9 51.5q-10 90 -60 134t-155 48q-74 2 -121 -11.5t-74.5 -41t-39.5 -67.5t-19 -91q-10 -72 -25.5 -106.5t-40 -48t-59 -13.5t-79.5 -2q-41 -2 -73 4t-51.5 23.5t-26.5 45zM373 1992q-4 27 0 54.5t17.5 52 t39 45t66.5 33.5q27 10 43 0t35 -41q10 -23 1.5 -38t-22.5 -30q-10 -6 -18.5 -10t-16.5 -10q-20 -14 -23 -42t11 -42q10 -10 22.5 -8t20.5 12q6 8 12 18.5t11 22.5q23 61 81 117q27 20 64 27t74 0t68.5 -27.5t45.5 -51.5q10 -18 16.5 -38.5t4.5 -43.5q0 -27 -12.5 -51 t-34 -42.5t-49 -30t-56.5 -9.5q-12 2 -18 5t-10 16q-4 16 -5.5 29.5t-1.5 37.5q2 12 17 19q8 4 15 7t11 7q8 10 11.5 21.5t-6.5 21.5q-8 4 -25.5 3t-26.5 -7q-16 -14 -25.5 -31t-19.5 -37q-12 -41 -36.5 -64.5t-53 -32.5t-59.5 -7t-55 10q-61 18 -85 53t-28 82zM430 934 q0 -8 1 -14.5t18 -1.5q18 6 19 14t-1 16q-6 131 51 271q37 100 35 186q-41 -121 -72.5 -237.5t-50.5 -233.5zM537 700q-8 -35 2 -52t28.5 -23.5t39 -5t36.5 1.5q20 0 43 1t40 9t25.5 25.5t0.5 48.5q-12 49 -22.5 121.5t-22 140t-25.5 115.5t-35 48q-16 0 -31.5 -48 t-29 -115.5t-25.5 -141t-24 -125.5zM1094 342q2 -39 4 -77t10 -74.5t24.5 -71.5t45.5 -66q2 78 -20.5 150.5t-63.5 138.5z" />
<glyph unicode="&#xc4;" d="M48 70.5q-7 27.5 1 68.5q16 92 46 228.5t66 290t73.5 310t70.5 291t57.5 231.5t32.5 130q16 66 23.5 102.5t26 54t58.5 19.5t124 0h27.5h37t35.5 -1t25 -1q47 -2 73.5 -7t41 -20.5t21.5 -43t17 -72.5q78 -362 167 -752.5t173 -753.5q6 -23 11.5 -45t2 -42.5t-19.5 -36 t-57 -21.5q-35 -4 -80 -5t-88 7t-77 29.5t-44 62.5q-8 35 -12 51.5t-9 51.5q-10 90 -60 134t-155 48q-74 2 -121 -11.5t-74.5 -41t-39.5 -67.5t-19 -91q-10 -72 -25.5 -106.5t-40 -48t-59 -13.5t-79.5 -2q-41 -2 -73 4t-51.5 23.5t-26.5 45zM361 2027q8 59 33.5 94t97.5 31 q63 -4 97 -31.5t30 -93.5q-4 -63 -34 -109t-103 -44q-37 0 -58.5 14t-34 35.5t-18.5 48.5t-10 55zM430 934q0 -8 1 -14.5t18 -1.5q18 6 19 14t-1 16q-6 131 51 271q37 100 35 186q-41 -121 -72.5 -237.5t-50.5 -233.5zM518 2060q0 -6 5.5 -15.5t13.5 -27.5q14 16 23.5 23.5 t13.5 12.5t4 11t-4 23q-2 4 -13.5 8t-15.5 0q-14 -14 -20.5 -21.5t-6.5 -13.5zM537 700q-8 -35 2 -52t28.5 -23.5t39 -5t36.5 1.5q20 0 43 1t40 9t25.5 25.5t0.5 48.5q-12 49 -22.5 121.5t-22 140t-25.5 115.5t-35 48q-16 0 -31.5 -48t-29 -115.5t-25.5 -141t-24 -125.5z M668 2027q8 59 33.5 94t97.5 31q63 -4 97 -31.5t30 -93.5q-4 -63 -34 -109t-103 -44q-37 0 -58.5 14t-34 35.5t-18.5 48.5t-10 55zM826 2060q0 -6 5 -15.5t13 -27.5q14 16 23.5 23.5t13.5 12.5t4 11t-4 23q-2 4 -13.5 8t-15.5 0q-14 -14 -20 -21.5t-6 -13.5zM1094 342 q2 -39 4 -77t10 -74.5t24.5 -71.5t45.5 -66q2 78 -20.5 150.5t-63.5 138.5z" />
<glyph unicode="&#xc5;" d="M48 70.5q-7 27.5 1 68.5q16 92 46 228.5t66 290t73.5 310t70.5 291t57.5 231.5t32.5 130q16 66 23.5 102.5t26 54t58.5 19.5t124 0h27.5h37t35.5 -1t25 -1q47 -2 73.5 -7t41 -20.5t21.5 -43t17 -72.5q78 -362 167 -752.5t173 -753.5q6 -23 11.5 -45t2 -42.5t-19.5 -36 t-57 -21.5q-35 -4 -80 -5t-88 7t-77 29.5t-44 62.5q-8 35 -12 51.5t-9 51.5q-10 90 -60 134t-155 48q-74 2 -121 -11.5t-74.5 -41t-39.5 -67.5t-19 -91q-10 -72 -25.5 -106.5t-40 -48t-59 -13.5t-79.5 -2q-41 -2 -73 4t-51.5 23.5t-26.5 45zM430 934q0 -8 1 -14.5t18 -1.5 q18 6 19 14t-1 16q-6 131 51 271q37 100 35 186q-41 -121 -72.5 -237.5t-50.5 -233.5zM514 1993q8 59 33.5 94t97.5 31q63 -4 97 -32t30 -93q-4 -63 -34 -109.5t-103 -44.5q-37 0 -58.5 14.5t-34 36t-18.5 48t-10 55.5zM537 700q-8 -35 2 -52t28.5 -23.5t39 -5t36.5 1.5 q20 0 43 1t40 9t25.5 25.5t0.5 48.5q-12 49 -22.5 121.5t-22 140t-25.5 115.5t-35 48q-16 0 -31.5 -48t-29 -115.5t-25.5 -141t-24 -125.5zM596 1984q4 -20 11 -37.5t34 -19.5q29 0 39 17.5t12 39.5q2 25 -11 35t-36 12q-27 2 -36 -11t-13 -36zM1094 342q2 -39 4 -77 t10 -74.5t24.5 -71.5t45.5 -66q2 78 -20.5 150.5t-63.5 138.5z" />
<glyph unicode="&#xc6;" horiz-adv-x="1812" d="M48 70.5q-7 27.5 1 68.5q16 92 46 228.5t66 290t73.5 310t70.5 291t57.5 231.5t32.5 130q16 66 23.5 102.5t26 54t58.5 19.5t124 0h27.5h37t35.5 -1t25 -1q47 -2 73.5 -7t41 -20.5t21.5 -43t17 -72.5l13 -64v68q0 25 2 50.5t9 46t21.5 33.5t36.5 13l735 -4q63 0 68 -74 q2 -4 2 -12q-2 -119 -7 -181.5t-24.5 -92t-59.5 -33.5t-112 -6h-110q-72 -2 -114 -4t-62.5 -20.5t-24.5 -62.5t0 -132q6 -29 21.5 -38.5t37.5 -9.5l170 -4q80 -2 105.5 -32.5t23.5 -112.5q0 -39 -2 -78t-14 -69.5t-41 -49t-82 -14.5q-84 4 -128 5t-62.5 -17.5t-20.5 -64.5 t0 -138q2 -47 1 -83t6 -60.5t25.5 -37t59.5 -12.5q86 -2 167 -3t161 1q51 0 69.5 -23.5t20.5 -78.5q0 -102 -8 -156.5t-38 -77t-87 -24.5t-156 -2q-41 2 -103.5 1t-130 -1t-130 -1t-103.5 1q-33 2 -52 6t-32 18q-23 10 -40 29t-23 45q-8 35 -12 51.5t-9 51.5q-10 90 -60 134 t-155 48q-74 2 -121 -11.5t-74.5 -41t-39.5 -67.5t-19 -91q-10 -72 -25.5 -106.5t-40 -48t-59 -13.5t-79.5 -2q-41 -2 -73 4t-51.5 23.5t-26.5 45zM430 934q0 -8 1 -14.5t18 -1.5q18 6 19 14t-1 16q-6 131 51 271q37 100 35 186q-41 -121 -72.5 -237.5t-50.5 -233.5z M537 700q-8 -35 2 -52t28.5 -23.5t39 -5t36.5 1.5q20 0 43 1t40 9t25.5 25.5t0.5 48.5q-12 49 -22.5 121.5t-22 140t-25.5 115.5t-35 48q-16 0 -31.5 -48t-29 -115.5t-25.5 -141t-24 -125.5zM1591 1545q0 -9 6.5 -14t28.5 -5q27 0 43.5 12t18.5 39q2 25 -2.5 49.5 t-38.5 28.5q-23 2 -31 -4t-11 -17.5t-4.5 -25t-5.5 -25.5q2 -8 -1 -18.5t-3 -19.5z" />
<glyph unicode="&#xc7;" horiz-adv-x="1261" d="M36 957.5q5 142.5 34.5 274.5t89.5 234q109 188 238.5 278.5t261 91.5t254 -84t219.5 -245q31 -49 44 -104t23 -113q8 -33 4 -68.5t-45 -45.5q-18 -4 -57 -10.5t-81 -6.5t-75 10.5t-39 40.5q-18 78 -67 126t-113.5 63.5t-134.5 -2t-127 -70.5q-35 -33 -56.5 -101.5 t-34 -156.5t-11 -184.5t11.5 -183.5t32.5 -154.5t57.5 -97.5q33 -47 75 -73t87 -32t89 6t83 41q47 35 75.5 94.5t26.5 114.5q0 43 22.5 57.5t57.5 22.5q6 2 33.5 10t61.5 9t69 -12t55 -56q12 -29 13 -79t-8 -105.5t-27.5 -105.5t-44.5 -77q-92 -129 -214 -204.5t-255 -88.5 h-5q10 -25 35 -30q88 -16 144.5 -58.5t87 -95.5t38 -114.5t1.5 -118.5q-8 -66 -29 -112t-51.5 -79t-70.5 -52.5t-87 -33.5q-51 -16 -108.5 -19t-112.5 15t-105.5 62t-89.5 124q-27 51 -14.5 87t72.5 85q41 33 73.5 21t65.5 -41q16 -10 28.5 -27.5t28.5 -29.5 q16 -16 41 -24.5t50.5 -7.5t47 11t33.5 29q16 23 8 46t-30 34q-23 12 -44.5 21t-43.5 11q-37 8 -77 21.5t-77 32t-65.5 45t-40.5 63.5q-12 33 -1 80t46 92q-37 16 -59.5 31.5t-33.5 23.5q-70 43 -125 134.5t-91.5 213t-54 263t-12.5 284zM169 770q3 -80 23.5 -156.5 t69.5 -150.5q-39 156 -56 313.5t-13 319.5q-10 -82 -18.5 -164t-5.5 -162zM207 1243q10 6 16 7t8 5l88 213q-51 -43 -78.5 -97t-33.5 -128zM389 -451q0 -25 16.5 -36t40.5 -17q-8 53 -43 66q-4 0 -10 -4.5t-4 -8.5zM502 -201q31 -29 66.5 -39t72.5 -17t74 -16.5t69 -33.5 q-29 41 -62.5 57.5t-71.5 22.5t-75.5 9t-72.5 17zM659 1513q90 -4 166 -36.5t144 -90.5q-27 59 -63 98.5t-77 55.5t-85 10t-85 -37zM692 -160q43 -23 84 -47t76 -78q-16 66 -55 94.5t-105 30.5z" />
<glyph unicode="&#xc8;" horiz-adv-x="948" d="M35 229.5v163v224t1 257t1 262.5t1 237.5t0 182t-1 99.5t2 50.5t9 46t21.5 33.5t36.5 13q76 0 173.5 -1t199 -1t196.5 -1t167 -1q63 0 67 -74q2 -4 2 -12q-2 -119 -7 -181.5t-24.5 -92t-59.5 -33.5t-111 -6h-111q-72 -2 -114 -4t-62.5 -20.5t-24.5 -62.5t0 -132 q6 -29 21.5 -38.5t38.5 -9.5q43 -2 86 -2t84 -2q80 -2 105.5 -32.5t23.5 -112.5q0 -39 -2 -78t-14.5 -69.5t-41 -49t-82.5 -14.5q-84 4 -128 5t-62 -17.5t-20.5 -64.5t0.5 -138q2 -47 1 -83t6 -60.5t25.5 -37t59.5 -12.5q86 -2 166.5 -3t160.5 1q51 0 69.5 -23.5t20.5 -78.5 q0 -102 -8 -156.5t-37.5 -77t-87 -24.5t-155.5 -2q-41 2 -103.5 1t-130 -1t-130 -1t-103.5 1q-37 0 -58.5 8t-34 26.5t-18.5 49.5t-12 78q-2 8 -2 71.5zM266 1999q6 42 49 83q47 47 88 38t86 -50q37 -43 70 -86t96 -78q20 -12 11 -24.5t-36.5 -22.5t-70.5 -14t-88 1 t-89 19.5t-75 44.5q-47 47 -41 89zM373 2045q25 -51 108 -59q-12 37 -32.5 59.5t-61.5 24.5q-4 0 -11.5 -10t-2.5 -15zM711 1545q0 -9 6 -14t28 -5q27 0 43.5 12t18.5 39q2 25 -2 49.5t-39 28.5q-23 2 -31 -4t-11 -17.5t-4 -25t-5 -25.5q2 -8 -1 -18.5t-3 -19.5z" />
<glyph unicode="&#xc9;" horiz-adv-x="948" d="M35 229.5v163v224t1 257t1 262.5t1 237.5t0 182t-1 99.5t2 50.5t9 46t21.5 33.5t36.5 13q76 0 173.5 -1t199 -1t196.5 -1t167 -1q63 0 67 -74q2 -4 2 -12q-2 -119 -7 -181.5t-24.5 -92t-59.5 -33.5t-111 -6h-111q-72 -2 -114 -4t-62.5 -20.5t-24.5 -62.5t0 -132 q6 -29 21.5 -38.5t38.5 -9.5q43 -2 86 -2t84 -2q80 -2 105.5 -32.5t23.5 -112.5q0 -39 -2 -78t-14.5 -69.5t-41 -49t-82.5 -14.5q-84 4 -128 5t-62 -17.5t-20.5 -64.5t0.5 -138q2 -47 1 -83t6 -60.5t25.5 -37t59.5 -12.5q86 -2 166.5 -3t160.5 1q51 0 69.5 -23.5t20.5 -78.5 q0 -102 -8 -156.5t-37.5 -77t-87 -24.5t-155.5 -2q-41 2 -103.5 1t-130 -1t-130 -1t-103.5 1q-37 0 -58.5 8t-34 26.5t-18.5 49.5t-12 78q-2 8 -2 71.5zM309 1904q63 35 96.5 78t69.5 86q45 41 86 50t88 -38q43 -41 49.5 -83t-40.5 -89q-47 -45 -119 -58t-133.5 -7t-94 24.5 t-2.5 36.5zM484 1984q84 8 108 59q4 4 -3 14.5t-11 10.5q-41 -2 -61.5 -24.5t-32.5 -59.5zM711 1545q0 -9 6 -14t28 -5q27 0 43.5 12t18.5 39q2 25 -2 49.5t-39 28.5q-23 2 -31 -4t-11 -17.5t-4 -25t-5 -25.5q2 -8 -1 -18.5t-3 -19.5z" />
<glyph unicode="&#xca;" horiz-adv-x="948" d="M35 229.5v163v224t1 257t1 262.5t1 237.5t0 182t-1 99.5t2 50.5t9 46t21.5 33.5t36.5 13q76 0 173.5 -1t199 -1t196.5 -1t167 -1q63 0 67 -74q2 -4 2 -12q-2 -119 -7 -181.5t-24.5 -92t-59.5 -33.5t-111 -6h-111q-72 -2 -114 -4t-62.5 -20.5t-24.5 -62.5t0 -132 q6 -29 21.5 -38.5t38.5 -9.5q43 -2 86 -2t84 -2q80 -2 105.5 -32.5t23.5 -112.5q0 -39 -2 -78t-14.5 -69.5t-41 -49t-82.5 -14.5q-84 4 -128 5t-62 -17.5t-20.5 -64.5t0.5 -138q2 -47 1 -83t6 -60.5t25.5 -37t59.5 -12.5q86 -2 166.5 -3t160.5 1q51 0 69.5 -23.5t20.5 -78.5 q0 -102 -8 -156.5t-37.5 -77t-87 -24.5t-155.5 -2q-41 2 -103.5 1t-130 -1t-130 -1t-103.5 1q-37 0 -58.5 8t-34 26.5t-18.5 49.5t-12 78q-2 8 -2 71.5zM198 1877.5q-19 15.5 7 31.5q63 35 96 78t70 86q27 23 51.5 38t50.5 13q27 2 51.5 -13t53.5 -38q37 -43 69.5 -86 t96.5 -78q27 -16 7.5 -31.5t-64 -23.5t-102.5 -7t-112 19q-53 -18 -110 -19t-101.5 7t-63.5 23.5zM473 2048q25 -51 109 -59q-12 37 -32.5 59.5t-61.5 24.5q-4 0 -11.5 -10t-3.5 -15zM711 1545q0 -9 6 -14t28 -5q27 0 43.5 12t18.5 39q2 25 -2 49.5t-39 28.5q-23 2 -31 -4 t-11 -17.5t-4 -25t-5 -25.5q2 -8 -1 -18.5t-3 -19.5z" />
<glyph unicode="&#xcb;" horiz-adv-x="948" d="M35 229.5v163v224t1 257t1 262.5t1 237.5t0 182t-1 99.5t2 50.5t9 46t21.5 33.5t36.5 13q76 0 173.5 -1t199 -1t196.5 -1t167 -1q63 0 67 -74q2 -4 2 -12q-2 -119 -7 -181.5t-24.5 -92t-59.5 -33.5t-111 -6h-111q-72 -2 -114 -4t-62.5 -20.5t-24.5 -62.5t0 -132 q6 -29 21.5 -38.5t38.5 -9.5q43 -2 86 -2t84 -2q80 -2 105.5 -32.5t23.5 -112.5q0 -39 -2 -78t-14.5 -69.5t-41 -49t-82.5 -14.5q-84 4 -128 5t-62 -17.5t-20.5 -64.5t0.5 -138q2 -47 1 -83t6 -60.5t25.5 -37t59.5 -12.5q86 -2 166.5 -3t160.5 1q51 0 69.5 -23.5t20.5 -78.5 q0 -102 -8 -156.5t-37.5 -77t-87 -24.5t-155.5 -2q-41 2 -103.5 1t-130 -1t-130 -1t-103.5 1q-37 0 -58.5 8t-34 26.5t-18.5 49.5t-12 78q-2 8 -2 71.5zM189 1995q8 59 33.5 94t97.5 31q63 -4 97 -31.5t30 -93.5q-4 -63 -34 -109t-103 -44q-37 0 -58.5 14t-34 35.5 t-18.5 48.5t-10 55zM346 2028q0 -6 5.5 -15.5t13.5 -27.5q14 16 23.5 23.5t13.5 12.5t4 11t-4 23q-2 4 -13.5 8t-15.5 0q-14 -14 -20.5 -21.5t-6.5 -13.5zM496 1995q8 59 33.5 94t97.5 31q63 -4 97 -31.5t30 -93.5q-4 -63 -34 -109t-103 -44q-37 0 -58.5 14t-34 35.5 t-18.5 48.5t-10 55zM654 2028q0 -6 5 -15.5t13 -27.5q14 16 23.5 23.5t13.5 12.5t4 11t-4 23q-2 4 -13.5 8t-15.5 0q-14 -14 -20 -21.5t-6 -13.5zM711 1545q0 -9 6 -14t28 -5q27 0 43.5 12t18.5 39q2 25 -2 49.5t-39 28.5q-23 2 -31 -4t-11 -17.5t-4 -25t-5 -25.5 q2 -8 -1 -18.5t-3 -19.5z" />
<glyph unicode="&#xcc;" horiz-adv-x="530" d="M34 1619q-1 91 1 107q2 25 17.5 39.5t38 20.5t49 7t53.5 3q39 2 78.5 4t75.5 -3t64.5 -21.5t43.5 -53.5q10 -29 12 -59t2 -59v-173v-254.5t-1 -294t-1 -295t1 -255t3 -174.5q2 -78 -44 -121t-167 -49q-66 -4 -104.5 7t-60 32.5t-29 51.5t-7.5 64q-2 117 -6 276t-7 329 t-5 338.5t-4 305t-3 227.5zM41 2008q6 42 49 83q47 47 88 38t86 -50q37 -43 70 -86t96 -78q20 -12 11 -24.5t-36.5 -22.5t-70.5 -14t-88 1t-89 19.5t-75 44.5q-47 47 -41 89zM148 2054q25 -51 108 -59q-12 37 -32.5 59.5t-61.5 24.5q-4 0 -11.5 -10t-2.5 -15zM198 1514.5 q5 -97.5 15 -194.5t20.5 -193.5t8.5 -194.5q6 98 13 195.5t7 194.5t-12 194.5t-43 193.5q-14 -98 -9 -195.5z" />
<glyph unicode="&#xcd;" horiz-adv-x="530" d="M34 1619q-1 91 1 107q2 25 17.5 39.5t38 20.5t49 7t53.5 3q39 2 78.5 4t75.5 -3t64.5 -21.5t43.5 -53.5q10 -29 12 -59t2 -59v-173v-254.5t-1 -294t-1 -295t1 -255t3 -174.5q2 -78 -44 -121t-167 -49q-66 -4 -104.5 7t-60 32.5t-29 51.5t-7.5 64q-2 117 -6 276t-7 329 t-5 338.5t-4 305t-3 227.5zM102 1915q63 35 96.5 78t69.5 86q45 41 86 50t88 -38q43 -41 49.5 -83t-40.5 -89q-47 -45 -119 -58t-133.5 -7t-94 24.5t-2.5 36.5zM198 1514.5q5 -97.5 15 -194.5t20.5 -193.5t8.5 -194.5q6 98 13 195.5t7 194.5t-12 194.5t-43 193.5 q-14 -98 -9 -195.5zM277 1995q84 8 108 59q4 4 -3 14.5t-11 10.5q-41 -2 -61.5 -24.5t-32.5 -59.5z" />
<glyph unicode="&#xce;" horiz-adv-x="530" d="M-11 1877.5q-19 15.5 7 31.5q63 35 96 78t70 86q27 23 51.5 38t50.5 13q27 2 51.5 -13t53.5 -38q37 -43 69.5 -86t96.5 -78q27 -16 7.5 -31.5t-64 -23.5t-102.5 -7t-112 19q-53 -18 -110 -19t-101.5 7t-63.5 23.5zM34 1619q-1 91 1 107q2 25 17.5 39.5t38 20.5t49 7 t53.5 3q39 2 78.5 4t75.5 -3t64.5 -21.5t43.5 -53.5q10 -29 12 -59t2 -59v-173v-254.5t-1 -294t-1 -295t1 -255t3 -174.5q2 -78 -44 -121t-167 -49q-66 -4 -104.5 7t-60 32.5t-29 51.5t-7.5 64q-2 117 -6 276t-7 329t-5 338.5t-4 305t-3 227.5zM198 1514.5 q5 -97.5 15 -194.5t20.5 -193.5t8.5 -194.5q6 98 13 195.5t7 194.5t-12 194.5t-43 193.5q-14 -98 -9 -195.5zM264 2048q25 -51 109 -59q-12 37 -32.5 59.5t-61.5 24.5q-4 0 -11.5 -10t-3.5 -15z" />
<glyph unicode="&#xcf;" horiz-adv-x="530" d="M-20 1999q8 59 33.5 94t97.5 31q63 -4 97 -31.5t30 -93.5q-4 -63 -34 -109t-103 -44q-37 0 -58.5 14t-34 35.5t-18.5 48.5t-10 55zM34 1619q-1 91 1 107q2 25 17.5 39.5t38 20.5t49 7t53.5 3q39 2 78.5 4t75.5 -3t64.5 -21.5t43.5 -53.5q10 -29 12 -59t2 -59v-173v-254.5 t-1 -294t-1 -295t1 -255t3 -174.5q2 -78 -44 -121t-167 -49q-66 -4 -104.5 7t-60 32.5t-29 51.5t-7.5 64q-2 117 -6 276t-7 329t-5 338.5t-4 305t-3 227.5zM137 2032q0 -6 5.5 -15.5t13.5 -27.5q14 16 23.5 23.5t13.5 12.5t4 11t-4 23q-2 4 -13.5 8t-15.5 0 q-14 -14 -20.5 -21.5t-6.5 -13.5zM198 1514.5q5 -97.5 15 -194.5t20.5 -193.5t8.5 -194.5q6 98 13 195.5t7 194.5t-12 194.5t-43 193.5q-14 -98 -9 -195.5zM287 1999q8 59 33.5 94t97.5 31q63 -4 97 -31.5t30 -93.5q-4 -63 -34 -109t-103 -44q-37 0 -58.5 14t-34 35.5 t-18.5 48.5t-10 55zM445 2032q0 -6 5 -15.5t13 -27.5q14 16 23.5 23.5t13.5 12.5t4 11t-4 23q-2 4 -13.5 8t-15.5 0q-14 -14 -20 -21.5t-6 -13.5z" />
<glyph unicode="&#xd0;" horiz-adv-x="1173" d="M-160 750v37.5v47v41v21.5q4 23 14.5 27t36.5 2q23 0 58 -1t82 -1q0 135 1 264t2 232.5t2 171t3 79.5q2 37 5 63.5t48 37.5q49 10 131 17t169 9t165 -1t121 -11q51 -10 105.5 -30.5t103.5 -49.5t91 -68t66 -86q33 -61 53.5 -180t29 -264t0 -303t-31 -298t-63.5 -247.5 t-100 -150.5q-31 -27 -87.5 -47.5t-119.5 -35t-124.5 -22.5t-104.5 -8h-396q-41 0 -55 29.5t-14 52.5v620l-154 7q-25 -2 -31 9t-6 36zM-109 856q4 -18 15.5 -17t21.5 5q27 4 52.5 7t50.5 7v23q-27 0 -54.5 -1t-56.5 -1q-10 -2 -21.5 -4.5t-7.5 -18.5zM387 539.5 q0 -68.5 2 -103.5q0 -25 1 -49.5t4 -44.5t11.5 -33.5t24.5 -15.5q33 -6 72 -6q35 0 67.5 6t63.5 29.5t58.5 65.5t49.5 114q25 80 32 190.5t1 225t-25.5 218t-46.5 171.5q-16 37 -36.5 71.5t-42 61t-45 41t-43.5 12.5h-11q-4 0 -9 1t-9 -1q-43 -4 -64.5 -27.5t-31 -69.5 t-10.5 -115t-3 -165l-6 -198q78 0 142.5 1t99.5 5q67 10 67 -68t-2 -113.5t-15 -48t-44 -9.5t-90 3h-160q-2 -80 -2 -148.5zM391 844q86 -4 176 12l-176 12v-24zM412 757q6 -1 41.5 0t121.5 5q8 0 15.5 6t5.5 14q-4 12 -11 16.5t-16.5 4.5t-17.5 -2t-16 0q-6 2 -12.5 0 t-10.5 -2q4 -10 -13.5 -17.5t-39 -12.5t-37.5 -8t-10 -4zM469 1659q55 -25 108.5 -49.5t114.5 -53.5l-8 21l47 -21q-33 72 -66.5 99.5t-86.5 23.5q-43 4 -109 -20zM575 102q6 -2 19 -2q-4 0 -9.5 1t-9.5 1zM612 100q17 0 25 2q180 -6 259 89.5t46 281.5q2 -51 -8 -94 t-39 -78q-6 -6 -18.5 -38t-42 -67.5t-83 -64.5t-139.5 -31z" />
<glyph unicode="&#xd1;" horiz-adv-x="1288" d="M43 201q-4 365 0 708.5t2 710.5q0 25 -1 55.5t5 58t23.5 47t54.5 19.5h156.5t108.5 -11t73 -40t49 -84q27 -76 63.5 -177.5t75.5 -210t79 -216t72 -194.5t55.5 -145t29.5 -69q-2 121 -6 262.5t-8.5 286t-8.5 281.5t-6 250q0 25 36 41t88 22t112.5 2t109.5 -16 q37 -10 44 -47t7 -70q0 -387 -1 -768t1 -766q0 -131 -110 -131h-197q-25 0 -42 4t-30.5 15.5t-26.5 32t-30 54.5q-23 33 -66.5 132.5t-97 228.5t-112 267t-109.5 249q-2 -33 -3 -97.5t-2 -145.5t-2 -172t-2 -176t-2 -158.5t-1 -120.5q4 -72 -23.5 -94.5t-93.5 -18.5 q-76 2 -126 5t-80.5 20.5t-44 57.5t-13.5 118zM141 221q2 -43 7.5 -71.5t17.5 -47t31.5 -33t54.5 -30.5q-16 53 -42 97t-69 85zM371 1992q-4 27 0 54.5t17.5 52t39 45t66.5 33.5q27 10 43 0t35 -41q10 -23 1.5 -38t-22.5 -30q-10 -6 -18.5 -10t-16.5 -10q-20 -14 -23 -42 t11 -42q10 -10 22.5 -8t20.5 12q6 8 12 18.5t11 22.5q23 61 81 117q27 20 64 27t74 0t68.5 -27.5t45.5 -51.5q10 -18 16.5 -38.5t4.5 -43.5q0 -27 -12.5 -51t-34 -42.5t-49 -30t-56.5 -9.5q-12 2 -18 5t-10 16q-4 16 -5.5 29.5t-1.5 37.5q2 12 17 19q8 4 15 7t11 7 q8 10 11.5 21.5t-6.5 21.5q-8 4 -25.5 3t-26.5 -7q-16 -14 -25.5 -31t-19.5 -37q-12 -41 -36.5 -64.5t-53 -32.5t-59.5 -7t-55 10q-61 18 -85 53t-28 82zM520 1245q37 -111 81 -214t122 -193q-43 106 -86 210.5t-88 208.5q-9 -4 -29 -12zM938 1720q27 -37 56.5 -44t60 -3 t60.5 11.5t56 -5.5q-51 43 -109 49t-124 -8z" />
<glyph unicode="&#xd2;" horiz-adv-x="1253" d="M33 944q6 61 10 128t14.5 136.5t26.5 140t47 140.5q49 119 140 194.5t200 109.5t223.5 26.5t212.5 -52.5q68 -33 109 -84t67.5 -112.5t42 -129t31.5 -132.5q47 -199 46 -396.5t-32 -396.5q-23 -145 -86 -255.5t-157 -179.5t-213 -89.5t-254 16.5q-100 27 -184 108 t-130 193q-59 143 -88.5 296t-25.5 339zM266 1397q78 55 157 110.5t167 116.5q-53 8 -106.5 -7t-99.5 -47t-78 -78t-40 -95zM317 537q23 -117 73 -164t155 -49q-70 49 -130.5 95t-97.5 118zM401 2002q6 42 49 83q47 47 88 38t86 -50q37 -43 70 -86t96 -78q20 -12 11 -24.5 t-36.5 -22.5t-70.5 -14t-88 1t-89 19.5t-75 44.5q-47 47 -41 89zM417.5 885.5q-2.5 -138.5 26.5 -273.5q20 -92 69.5 -144t123.5 -54q39 0 66.5 17.5t47 47t32 67.5t20.5 79q12 49 12 103t4 108q2 92 -7 178t-38 170q-29 78 -79 132t-115 52q-31 -2 -54.5 -21.5t-41 -49 t-29 -65.5t-15.5 -73q-20 -135 -22.5 -273.5zM508 2048q25 -51 108 -59q-12 37 -32.5 59.5t-61.5 24.5q-4 0 -11.5 -10t-2.5 -15zM674 1507q14 -41 37.5 -68.5t48 -47t50.5 -37t46 -37.5q-31 53 -71 101t-111 89zM684 223q70 2 119 17.5t83 45t55.5 76t33.5 111.5 q-23 -45 -53.5 -79t-68.5 -62.5t-81 -55t-88 -53.5z" />
<glyph unicode="&#xd3;" horiz-adv-x="1253" d="M33 944q6 61 10 128t14.5 136.5t26.5 140t47 140.5q49 119 140 194.5t200 109.5t223.5 26.5t212.5 -52.5q68 -33 109 -84t67.5 -112.5t42 -129t31.5 -132.5q47 -199 46 -396.5t-32 -396.5q-23 -145 -86 -255.5t-157 -179.5t-213 -89.5t-254 16.5q-100 27 -184 108 t-130 193q-59 143 -88.5 296t-25.5 339zM266 1397q78 55 157 110.5t167 116.5q-53 8 -106.5 -7t-99.5 -47t-78 -78t-40 -95zM317 537q23 -117 73 -164t155 -49q-70 49 -130.5 95t-97.5 118zM417.5 885.5q-2.5 -138.5 26.5 -273.5q20 -92 69.5 -144t123.5 -54q39 0 66.5 17.5 t47 47t32 67.5t20.5 79q12 49 12 103t4 108q2 92 -7 178t-38 170q-29 78 -79 132t-115 52q-31 -2 -54.5 -21.5t-41 -49t-29 -65.5t-15.5 -73q-20 -135 -22.5 -273.5zM462 1911q63 35 96.5 78t69.5 86q45 41 86 50t88 -38q43 -41 49.5 -83t-40.5 -89q-47 -45 -119 -58 t-133.5 -7t-94 24.5t-2.5 36.5zM637 1991q84 8 108 59q4 4 -3 14.5t-11 10.5q-41 -2 -61.5 -24.5t-32.5 -59.5zM674 1507q14 -41 37.5 -68.5t48 -47t50.5 -37t46 -37.5q-31 53 -71 101t-111 89zM684 223q70 2 119 17.5t83 45t55.5 76t33.5 111.5q-23 -45 -53.5 -79 t-68.5 -62.5t-81 -55t-88 -53.5z" />
<glyph unicode="&#xd4;" horiz-adv-x="1253" d="M33 944q6 61 10 128t14.5 136.5t26.5 140t47 140.5q49 119 140 194.5t200 109.5t223.5 26.5t212.5 -52.5q68 -33 109 -84t67.5 -112.5t42 -129t31.5 -132.5q47 -199 46 -396.5t-32 -396.5q-23 -145 -86 -255.5t-157 -179.5t-213 -89.5t-254 16.5q-100 27 -184 108 t-130 193q-59 143 -88.5 296t-25.5 339zM266 1397q78 55 157 110.5t167 116.5q-53 8 -106.5 -7t-99.5 -47t-78 -78t-40 -95zM317 537q23 -117 73 -164t155 -49q-70 49 -130.5 95t-97.5 118zM349 1881.5q-19 15.5 7 31.5q63 35 96 78t70 86q27 23 51.5 38t50.5 13 q27 2 51.5 -13t53.5 -38q37 -43 69.5 -86t96.5 -78q27 -16 7.5 -31.5t-64 -23.5t-102.5 -7t-112 19q-53 -18 -110 -19t-101.5 7t-63.5 23.5zM417.5 885.5q-2.5 -138.5 26.5 -273.5q20 -92 69.5 -144t123.5 -54q39 0 66.5 17.5t47 47t32 67.5t20.5 79q12 49 12 103t4 108 q2 92 -7 178t-38 170q-29 78 -79 132t-115 52q-31 -2 -54.5 -21.5t-41 -49t-29 -65.5t-15.5 -73q-20 -135 -22.5 -273.5zM624 2052q25 -51 109 -59q-12 37 -32.5 59.5t-61.5 24.5q-4 0 -11.5 -10t-3.5 -15zM674 1507q14 -41 37.5 -68.5t48 -47t50.5 -37t46 -37.5 q-31 53 -71 101t-111 89zM684 223q70 2 119 17.5t83 45t55.5 76t33.5 111.5q-23 -45 -53.5 -79t-68.5 -62.5t-81 -55t-88 -53.5z" />
<glyph unicode="&#xd5;" horiz-adv-x="1253" d="M33 944q6 61 10 128t14.5 136.5t26.5 140t47 140.5q49 119 140 194.5t200 109.5t223.5 26.5t212.5 -52.5q68 -33 109 -84t67.5 -112.5t42 -129t31.5 -132.5q47 -199 46 -396.5t-32 -396.5q-23 -145 -86 -255.5t-157 -179.5t-213 -89.5t-254 16.5q-100 27 -184 108 t-130 193q-59 143 -88.5 296t-25.5 339zM266 1397q78 55 157 110.5t167 116.5q-53 8 -106.5 -7t-99.5 -47t-78 -78t-40 -95zM317 537q23 -117 73 -164t155 -49q-70 49 -130.5 95t-97.5 118zM352 1984q-4 27 0 54.5t17.5 52t39 45t66.5 33.5q27 10 43 0t35 -41 q10 -23 1.5 -38t-22.5 -30q-10 -6 -18.5 -10t-16.5 -10q-20 -14 -23 -42t11 -42q10 -10 22.5 -8t20.5 12q6 8 12 18.5t11 22.5q23 61 81 117q27 20 64 27t74 0t68.5 -27.5t45.5 -51.5q10 -18 16.5 -38.5t4.5 -43.5q0 -27 -12.5 -51t-34 -42.5t-49 -30t-56.5 -9.5 q-12 2 -18 5t-10 16q-4 16 -5.5 29.5t-1.5 37.5q2 12 17 19q8 4 15 7t11 7q8 10 11.5 21.5t-6.5 21.5q-8 4 -25.5 3t-26.5 -7q-16 -14 -25.5 -31t-19.5 -37q-12 -41 -36.5 -64.5t-53 -32.5t-59.5 -7t-55 10q-61 18 -85 53t-28 82zM417.5 885.5q-2.5 -138.5 26.5 -273.5 q20 -92 69.5 -144t123.5 -54q39 0 66.5 17.5t47 47t32 67.5t20.5 79q12 49 12 103t4 108q2 92 -7 178t-38 170q-29 78 -79 132t-115 52q-31 -2 -54.5 -21.5t-41 -49t-29 -65.5t-15.5 -73q-20 -135 -22.5 -273.5zM674 1507q14 -41 37.5 -68.5t48 -47t50.5 -37t46 -37.5 q-31 53 -71 101t-111 89zM684 223q70 2 119 17.5t83 45t55.5 76t33.5 111.5q-23 -45 -53.5 -79t-68.5 -62.5t-81 -55t-88 -53.5z" />
<glyph unicode="&#xd6;" horiz-adv-x="1253" d="M33 944q6 61 10 128t14.5 136.5t26.5 140t47 140.5q49 119 140 194.5t200 109.5t223.5 26.5t212.5 -52.5q68 -33 109 -84t67.5 -112.5t42 -129t31.5 -132.5q47 -199 46 -396.5t-32 -396.5q-23 -145 -86 -255.5t-157 -179.5t-213 -89.5t-254 16.5q-100 27 -184 108 t-130 193q-59 143 -88.5 296t-25.5 339zM266 1397q78 55 157 110.5t167 116.5q-53 8 -106.5 -7t-99.5 -47t-78 -78t-40 -95zM317 537q23 -117 73 -164t155 -49q-70 49 -130.5 95t-97.5 118zM340 2001q8 59 33.5 94t97.5 31q63 -4 97 -31.5t30 -93.5q-4 -63 -34 -109 t-103 -44q-37 0 -58.5 14t-34 35.5t-18.5 48.5t-10 55zM417.5 885.5q-2.5 -138.5 26.5 -273.5q20 -92 69.5 -144t123.5 -54q39 0 66.5 17.5t47 47t32 67.5t20.5 79q12 49 12 103t4 108q2 92 -7 178t-38 170q-29 78 -79 132t-115 52q-31 -2 -54.5 -21.5t-41 -49t-29 -65.5 t-15.5 -73q-20 -135 -22.5 -273.5zM497 2034q0 -6 5.5 -15.5t13.5 -27.5q14 16 23.5 23.5t13.5 12.5t4 11t-4 23q-2 4 -13.5 8t-15.5 0q-14 -14 -20.5 -21.5t-6.5 -13.5zM647 2001q8 59 33.5 94t97.5 31q63 -4 97 -31.5t30 -93.5q-4 -63 -34 -109t-103 -44q-37 0 -58.5 14 t-34 35.5t-18.5 48.5t-10 55zM674 1507q14 -41 37.5 -68.5t48 -47t50.5 -37t46 -37.5q-31 53 -71 101t-111 89zM684 223q70 2 119 17.5t83 45t55.5 76t33.5 111.5q-23 -45 -53.5 -79t-68.5 -62.5t-81 -55t-88 -53.5zM805 2034q0 -6 5 -15.5t13 -27.5q14 16 23.5 23.5 t13.5 12.5t4 11t-4 23q-2 4 -13.5 8t-15.5 0q-14 -14 -20 -21.5t-6 -13.5z" />
<glyph unicode="&#xd7;" horiz-adv-x="851" d="M37 559.5q4 11.5 24 28.5q25 25 81.5 78t123.5 118q-49 53 -95 102.5t-85 94.5q-18 16 -15 28.5t21 28.5l26.5 26.5t33 34t29 30t16.5 14.5q16 12 27.5 8t27.5 -25q23 -23 70 -72.5t106 -111.5q53 53 95 97t63 71q20 27 43.5 29t52.5 -29q53 -55 77.5 -80.5t23.5 -44 t-24.5 -38t-64.5 -62.5l-106 -107q59 -59 108 -106t78 -70q27 -20 29 -43.5t-29 -52.5q-55 -53 -80.5 -78t-44 -23.5t-38 25t-62.5 64.5l-125 127l-217 -199q-16 -18 -28.5 -15t-28.5 21q-10 10 -27 26.5l-34 33t-29.5 28.5t-14.5 16q-12 16 -8 27.5zM103 557q-6 -8 8 -18 q16 -10 22 -1t12 19q55 78 121 146.5t144 127.5q51 39 95 85.5t83 99.5q-123 -104 -243 -213t-230 -228q-6 -10 -12 -18zM548 837q5 3 30.5 29.5t83.5 89.5q4 4 5 14.5t-5 14.5q-25 10 -35.5 -5t-22.5 -26q-6 -4 -8 -8t-6 -8q8 -4 1 -21.5t-18.5 -37t-20.5 -32.5t-4 -10z " />
<glyph unicode="&#xd8;" horiz-adv-x="1253" d="M33 944q6 61 10 128t14.5 136.5t26.5 140t47 140.5q49 119 140 194.5t200 109.5t223.5 26.5t212.5 -52.5l13 -6q2 -2 6 -2q61 -18 82 -67q35 -37 57 -83t38.5 -96.5t29 -102.5t24.5 -101q47 -199 46 -396.5t-32 -396.5q-23 -145 -86 -255.5t-157 -179.5t-213 -89.5 t-254 16.5q-39 8 -78 29l-21 6q-90 25 -121.5 62.5t-27.5 82.5q-41 57 -66 121q-59 143 -88.5 296t-25.5 339zM266 1397l324 227q-53 8 -106.5 -7t-99.5 -47t-78 -78t-40 -95zM317 537q0 -6 2 -11v4q0 2 -1 3.5t-1 3.5zM418 815l194 551q-8 2 -16 2h-16q-31 -2 -54.5 -21.5 t-41 -49t-29 -65.5t-15.5 -73q-12 -86 -19 -172t-3 -172zM580 934q39 86 76.5 170t70.5 172q-8 14 -17.5 25.5t-19.5 21.5q-25 -98 -48 -196.5t-62 -192.5zM586 420q25 -6 51 -6q39 0 66.5 17.5t47 47t32 67.5t20.5 79q12 49 12 103.5t4 107.5q0 47 -2 94t-6 92 q-57 -150 -116.5 -308.5t-108.5 -293.5zM684 223q70 2 119 17.5t83 45t55.5 76t33.5 111.5q-23 -45 -53.5 -79t-68.5 -62.5t-81 -55t-88 -53.5zM719 1430q20 -23 47 -44l10 41q-20 18 -47 41z" />
<glyph unicode="&#xd9;" horiz-adv-x="1208" d="M38 1241q5 213 3 418q0 55 21.5 82.5t56.5 39t76 13.5t81 6q188 18 189 -145q0 -104 1 -227t2 -249t2 -249t1 -228q0 -63 8 -128.5t45 -118.5q18 -27 53 -38t76 -1q35 8 60.5 28.5t29.5 49.5q4 20 7.5 59t4.5 83t3 84t2 60q4 113 5 233t0 232.5t-2 211.5t-1 173 q0 27 3 56.5t15.5 54t38 42t72.5 17.5q94 0 144 -2t75 -16.5t32 -46t13 -88.5q4 -55 7 -147.5t5 -201t3 -223t1 -216t-2 -180.5t-6 -116q-8 -100 -37.5 -195.5t-86 -172t-141.5 -129t-204 -66.5q-80 -8 -161.5 2t-154.5 41t-132.5 83t-95.5 128q-63 137 -83 279.5t-26 289.5 q-8 205 -3 418zM268 324q63 -123 143.5 -158t206.5 0q-49 2 -93 15.5t-86 35t-84 49t-87 58.5zM379 1999q6 42 49 83q47 47 88 38t86 -50q37 -43 70 -86t96 -78q20 -12 11 -24.5t-36.5 -22.5t-70.5 -14t-88 1t-89 19.5t-75 44.5q-47 47 -41 89zM486 2045q25 -51 108 -59 q-12 37 -32.5 59.5t-61.5 24.5q-4 0 -11.5 -10t-2.5 -15z" />
<glyph unicode="&#xda;" horiz-adv-x="1208" d="M38 1241q5 213 3 418q0 55 21.5 82.5t56.5 39t76 13.5t81 6q188 18 189 -145q0 -104 1 -227t2 -249t2 -249t1 -228q0 -63 8 -128.5t45 -118.5q18 -27 53 -38t76 -1q35 8 60.5 28.5t29.5 49.5q4 20 7.5 59t4.5 83t3 84t2 60q4 113 5 233t0 232.5t-2 211.5t-1 173 q0 27 3 56.5t15.5 54t38 42t72.5 17.5q94 0 144 -2t75 -16.5t32 -46t13 -88.5q4 -55 7 -147.5t5 -201t3 -223t1 -216t-2 -180.5t-6 -116q-8 -100 -37.5 -195.5t-86 -172t-141.5 -129t-204 -66.5q-80 -8 -161.5 2t-154.5 41t-132.5 83t-95.5 128q-63 137 -83 279.5t-26 289.5 q-8 205 -3 418zM268 324q63 -123 143.5 -158t206.5 0q-49 2 -93 15.5t-86 35t-84 49t-87 58.5zM440 1913q63 35 96.5 78t69.5 86q45 41 86 50t88 -38q43 -41 49.5 -83t-40.5 -89q-47 -45 -119 -58t-133.5 -7t-94 24.5t-2.5 36.5zM615 1993q84 8 108 59q4 4 -3 14.5t-11 10.5 q-41 -2 -61.5 -24.5t-32.5 -59.5z" />
<glyph unicode="&#xdb;" horiz-adv-x="1208" d="M38 1241q5 213 3 418q0 55 21.5 82.5t56.5 39t76 13.5t81 6q188 18 189 -145q0 -104 1 -227t2 -249t2 -249t1 -228q0 -63 8 -128.5t45 -118.5q18 -27 53 -38t76 -1q35 8 60.5 28.5t29.5 49.5q4 20 7.5 59t4.5 83t3 84t2 60q4 113 5 233t0 232.5t-2 211.5t-1 173 q0 27 3 56.5t15.5 54t38 42t72.5 17.5q94 0 144 -2t75 -16.5t32 -46t13 -88.5q4 -55 7 -147.5t5 -201t3 -223t1 -216t-2 -180.5t-6 -116q-8 -100 -37.5 -195.5t-86 -172t-141.5 -129t-204 -66.5q-80 -8 -161.5 2t-154.5 41t-132.5 83t-95.5 128q-63 137 -83 279.5t-26 289.5 q-8 205 -3 418zM268 324q63 -123 143.5 -158t206.5 0q-49 2 -93 15.5t-86 35t-84 49t-87 58.5zM327 1877.5q-19 15.5 7 31.5q63 35 96 78t70 86q27 23 51.5 38t50.5 13q27 2 51.5 -13t53.5 -38q37 -43 69.5 -86t96.5 -78q27 -16 7.5 -31.5t-64 -23.5t-102.5 -7t-112 19 q-53 -18 -110 -19t-101.5 7t-63.5 23.5zM602 2048q25 -51 109 -59q-12 37 -32.5 59.5t-61.5 24.5q-4 0 -11.5 -10t-3.5 -15z" />
<glyph unicode="&#xdc;" horiz-adv-x="1208" d="M38 1241q5 213 3 418q0 55 21.5 82.5t56.5 39t76 13.5t81 6q188 18 189 -145q0 -104 1 -227t2 -249t2 -249t1 -228q0 -63 8 -128.5t45 -118.5q18 -27 53 -38t76 -1q35 8 60.5 28.5t29.5 49.5q4 20 7.5 59t4.5 83t3 84t2 60q4 113 5 233t0 232.5t-2 211.5t-1 173 q0 27 3 56.5t15.5 54t38 42t72.5 17.5q94 0 144 -2t75 -16.5t32 -46t13 -88.5q4 -55 7 -147.5t5 -201t3 -223t1 -216t-2 -180.5t-6 -116q-8 -100 -37.5 -195.5t-86 -172t-141.5 -129t-204 -66.5q-80 -8 -161.5 2t-154.5 41t-132.5 83t-95.5 128q-63 137 -83 279.5t-26 289.5 q-8 205 -3 418zM268 324q63 -123 143.5 -158t206.5 0q-49 2 -93 15.5t-86 35t-84 49t-87 58.5zM318 1999q8 59 33.5 94t97.5 31q63 -4 97 -31.5t30 -93.5q-4 -63 -34 -109t-103 -44q-37 0 -58.5 14t-34 35.5t-18.5 48.5t-10 55zM475 2032q0 -6 5.5 -15.5t13.5 -27.5 q14 16 23.5 23.5t13.5 12.5t4 11t-4 23q-2 4 -13.5 8t-15.5 0q-14 -14 -20.5 -21.5t-6.5 -13.5zM625 1999q8 59 33.5 94t97.5 31q63 -4 97 -31.5t30 -93.5q-4 -63 -34 -109t-103 -44q-37 0 -58.5 14t-34 35.5t-18.5 48.5t-10 55zM783 2032q0 -6 5 -15.5t13 -27.5 q14 16 23.5 23.5t13.5 12.5t4 11t-4 23q-2 4 -13.5 8t-15.5 0q-14 -14 -20 -21.5t-6 -13.5z" />
<glyph unicode="&#xdd;" horiz-adv-x="1267" d="M49 1768.5q6 37.5 82 35.5q90 -2 147.5 -3t94.5 -8t58.5 -25.5t43 -52.5t47 -90t68.5 -138l74 -141q41 102 68.5 183t39.5 134q8 33 13.5 59.5t18.5 45t43 27.5t87 9q137 0 211 -3t96.5 -31.5t2 -93t-69.5 -189.5q-78 -199 -165 -409t-175 -414q-47 -111 -93.5 -216.5 t-91.5 -203.5q-18 -43 -37.5 -85t-38.5 -83q-14 -51 -49 -63.5t-104 -12.5q-82 0 -144.5 -2t-80.5 0q-29 4 -43.5 11t-17.5 19.5t3 31t17 44.5q18 47 54 131t82 192t97 231.5t105 250.5q-59 117 -119 230.5t-113 213t-98 179.5t-76 131q-43 68 -37 105.5zM49 1768.5 q6 37.5 82 35.5q90 -2 147.5 -3t94.5 -8t58.5 -25.5t43 -52.5t47 -90t68.5 -138l74 -141q41 102 68.5 183t39.5 134q8 33 13.5 59.5t18.5 45t43 27.5t87 9q137 0 211 -3t96.5 -31.5t2 -93t-69.5 -189.5q-78 -199 -165 -409t-175 -414q-47 -111 -93.5 -216.5t-91.5 -203.5 q-18 -43 -37.5 -85t-38.5 -83q-14 -51 -49 -63.5t-104 -12.5q-82 0 -144.5 -2t-80.5 0q-29 4 -43.5 11t-17.5 19.5t3 31t17 44.5q18 47 54 131t82 192t97 231.5t105 250.5q-59 117 -119 230.5t-113 213t-98 179.5t-76 131q-43 68 -37 105.5zM468 1915q63 35 96.5 78t69.5 86 q45 41 86 50t88 -38q43 -41 49.5 -83t-40.5 -89q-47 -45 -119 -58t-133.5 -7t-94 24.5t-2.5 36.5zM643 1995q84 8 108 59q4 4 -3 14.5t-11 10.5q-41 -2 -61.5 -24.5t-32.5 -59.5zM948.5 1296.5q-0.5 6.5 1.5 10.5q47 141 121 286q10 16 17.5 35t17.5 35q-7 -45 -25 -90 q-6 -12 -12 -25.5t-14 -25.5q-33 -53 -50.5 -104.5t-25.5 -104.5q0 -6 -2 -12.5t-16 -8.5q-12 -2 -12.5 4.5zM948.5 1296.5q-0.5 6.5 1.5 10.5q47 141 121 286q10 16 17.5 35t17.5 35q-7 -45 -25 -90q-6 -12 -12 -25.5t-14 -25.5q-33 -53 -50.5 -104.5t-25.5 -104.5 q0 -6 -2 -12.5t-16 -8.5q-12 -2 -12.5 4.5z" />
<glyph unicode="&#xf7;" horiz-adv-x="919" d="M29 721v37.5v47v41v21.5q4 23 14 27t37 2q29 0 85 -1t128 -3t150.5 -3t151.5 -1t133 1t93 5q68 10 68 -68t-2 -113.5t-15.5 -48t-44 -9.5t-90.5 3q-84 0 -173 1.5t-177 4.5t-170 5t-151 6q-25 -2 -31 9t-6 36zM80 827q4 -18 15 -17t22 5q96 16 190 19.5t191 -11.5 q125 -18 258 4q-162 14 -324 21.5t-323 1.5q-10 -2 -21.5 -4.5t-7.5 -18.5zM317 498q6 47 27 73.5t76 22.5q47 -2 74.5 -23.5t23.5 -72.5q-4 -49 -26.5 -85t-79.5 -34q-29 0 -45.5 11t-26.5 27.5t-14 37t-9 43.5zM317 1094q6 47 27 73.5t76 22.5q47 -2 74.5 -23.5 t23.5 -72.5q-4 -49 -26.5 -85t-79.5 -34q-29 0 -45.5 11t-26.5 27.5t-14 37t-9 43.5zM440 523q0 -5 4.5 -12t10.5 -22q20 25 26 28t2 26q-2 4 -11 7t-11 -1q-12 -10 -16.5 -15.5t-4.5 -10.5zM440 1119q0 -5 4.5 -12t10.5 -22q20 25 26 28t2 26q-2 4 -11 7t-11 -1 q-12 -10 -16.5 -15.5t-4.5 -10.5zM600 728q6 -1 42 0t122 5q8 0 15 6.5t5 14.5q-4 12 -11 16t-16 4t-17.5 -2t-16.5 0q-6 2 -12 0t-11 -2q4 -10 -13 -17.5t-38.5 -12.5t-38 -8t-10.5 -4z" />
<glyph unicode="&#x152;" horiz-adv-x="1744" d="M33 944q6 61 10 128t14.5 136.5t26.5 140t47 140.5q47 113 132 186.5t188.5 110.5t213 35t207.5 -39q16 16 39 16l736 -4q63 0 67 -74q2 -4 2 -12q-2 -119 -7 -181.5t-24.5 -92t-59.5 -33.5t-112 -6h-110q-72 -2 -114 -4t-62.5 -20.5t-24.5 -62.5t0 -132 q6 -29 21.5 -38.5t38.5 -9.5l170 -4q80 -2 105.5 -32.5t23.5 -112.5q0 -39 -2.5 -78t-14.5 -69.5t-40.5 -49t-82.5 -14.5q-84 4 -128 5t-62.5 -17.5t-20.5 -64.5t0 -138q2 -47 1 -83t6.5 -60.5t26 -37t59.5 -12.5q86 -2 166.5 -3t160.5 1q51 0 69.5 -23.5t20.5 -78.5 q0 -102 -8 -156.5t-37.5 -77t-87 -24.5t-155.5 -2q-41 2 -103.5 1t-130.5 -1t-130 -1t-103 1t-63.5 11t-35.5 34q-86 -45 -188.5 -54.5t-216.5 21.5q-100 27 -184 108t-130 193q-59 143 -88.5 296t-25.5 339zM266 1397l324 227q-53 8 -106.5 -7t-99.5 -47t-78 -78t-40 -95z M317 537q23 -117 73 -164t155 -49q-70 49 -130.5 95t-97.5 118zM417.5 885.5q-2.5 -138.5 26.5 -273.5q20 -92 69.5 -144t123.5 -54q39 0 66.5 17.5t47 47t32 67.5t20.5 79q12 49 12 103t4 108q2 92 -7 178t-38 170q-29 78 -79 132t-115 52q-31 -2 -54.5 -21.5t-41 -49 t-29 -65.5t-15.5 -73q-20 -135 -22.5 -273.5zM674 1507q14 -39 33.5 -64.5t43 -45t47 -34.5t44.5 -34v10q-29 47 -67 89t-101 79zM684 223q96 4 156 33v63q-35 -25 -75 -48t-81 -48zM1516 1545q0 -9 6 -14t28 -5q27 0 43.5 12t18.5 39q2 25 -2 49.5t-39 28.5q-23 2 -31 -4 t-11 -17.5t-4 -25t-5 -25.5q2 -8 -1 -18.5t-3 -19.5z" />
<glyph unicode="&#x178;" horiz-adv-x="1267" d="M49 1768.5q6 37.5 82 35.5q90 -2 147.5 -3t94.5 -8t58.5 -25.5t43 -52.5t47 -90t68.5 -138l74 -141q41 102 68.5 183t39.5 134q8 33 13.5 59.5t18.5 45t43 27.5t87 9q137 0 211 -3t96.5 -31.5t2 -93t-69.5 -189.5q-78 -199 -165 -409t-175 -414q-47 -111 -93.5 -216.5 t-91.5 -203.5q-18 -43 -37.5 -85t-38.5 -83q-14 -51 -49 -63.5t-104 -12.5q-82 0 -144.5 -2t-80.5 0q-29 4 -43.5 11t-17.5 19.5t3 31t17 44.5q18 47 54 131t82 192t97 231.5t105 250.5q-59 117 -119 230.5t-113 213t-98 179.5t-76 131q-43 68 -37 105.5zM49 1768.5 q6 37.5 82 35.5q90 -2 147.5 -3t94.5 -8t58.5 -25.5t43 -52.5t47 -90t68.5 -138l74 -141q41 102 68.5 183t39.5 134q8 33 13.5 59.5t18.5 45t43 27.5t87 9q137 0 211 -3t96.5 -31.5t2 -93t-69.5 -189.5q-78 -199 -165 -409t-175 -414q-47 -111 -93.5 -216.5t-91.5 -203.5 q-18 -43 -37.5 -85t-38.5 -83q-14 -51 -49 -63.5t-104 -12.5q-82 0 -144.5 -2t-80.5 0q-29 4 -43.5 11t-17.5 19.5t3 31t17 44.5q18 47 54 131t82 192t97 231.5t105 250.5q-59 117 -119 230.5t-113 213t-98 179.5t-76 131q-43 68 -37 105.5zM348 2001q8 59 33.5 94t97.5 31 q63 -4 97 -31.5t30 -93.5q-4 -63 -34 -109t-103 -44q-37 0 -58.5 14t-34 35.5t-18.5 48.5t-10 55zM505 2034q0 -6 5.5 -15.5t13.5 -27.5q14 16 23.5 23.5t13.5 12.5t4 11t-4 23q-2 4 -13.5 8t-15.5 0q-14 -14 -20.5 -21.5t-6.5 -13.5zM655 2001q8 59 33.5 94t97.5 31 q63 -4 97 -31.5t30 -93.5q-4 -63 -34 -109t-103 -44q-37 0 -58.5 14t-34 35.5t-18.5 48.5t-10 55zM813 2034q0 -6 5 -15.5t13 -27.5q14 16 23.5 23.5t13.5 12.5t4 11t-4 23q-2 4 -13.5 8t-15.5 0q-14 -14 -20 -21.5t-6 -13.5zM948.5 1296.5q-0.5 6.5 1.5 10.5 q47 141 121 286q10 16 17.5 35t17.5 35q-7 -45 -25 -90q-6 -12 -12 -25.5t-14 -25.5q-33 -53 -50.5 -104.5t-25.5 -104.5q0 -6 -2 -12.5t-16 -8.5q-12 -2 -12.5 4.5zM948.5 1296.5q-0.5 6.5 1.5 10.5q47 141 121 286q10 16 17.5 35t17.5 35q-7 -45 -25 -90q-6 -12 -12 -25.5 t-14 -25.5q-33 -53 -50.5 -104.5t-25.5 -104.5q0 -6 -2 -12.5t-16 -8.5q-12 -2 -12.5 4.5z" />
<glyph unicode="&#x2c6;" horiz-adv-x="727" d="M87 1940.5q-19 15.5 7 31.5q63 35 96 78t70 86q27 23 51.5 38t50.5 13q27 2 51.5 -13t53.5 -38q37 -43 69.5 -86t96.5 -78q27 -16 7.5 -31.5t-64 -23.5t-102.5 -7t-112 19q-53 -18 -110 -19t-101.5 7t-63.5 23.5zM362 2111q25 -51 109 -59q-12 37 -32.5 59.5t-61.5 24.5 q-4 0 -11.5 -10t-3.5 -15z" />
<glyph unicode="&#x2dc;" horiz-adv-x="620" d="M37 2023q-4 27 0 54.5t17.5 52t39 45t66.5 33.5q27 10 43 0t35 -41q10 -23 1.5 -38t-22.5 -30q-10 -6 -18.5 -10t-16.5 -10q-20 -14 -23 -42t11 -42q10 -10 22.5 -8t20.5 12q6 8 12 18.5t11 22.5q23 61 81 117q27 20 64 27t74 0t68.5 -27.5t45.5 -51.5q10 -18 16.5 -38.5 t4.5 -43.5q0 -27 -12.5 -51t-34 -42.5t-49 -30t-56.5 -9.5q-12 2 -18 5t-10 16q-4 16 -5.5 29.5t-1.5 37.5q2 12 17 19q8 4 15 7t11 7q8 10 11.5 21.5t-6.5 21.5q-8 4 -25.5 3t-26.5 -7q-16 -14 -25.5 -31t-19.5 -37q-12 -41 -36.5 -64.5t-53 -32.5t-59.5 -7t-55 10 q-61 18 -85 53t-28 82z" />
<glyph unicode="&#x2000;" horiz-adv-x="1106" />
<glyph unicode="&#x2001;" horiz-adv-x="2213" />
<glyph unicode="&#x2002;" horiz-adv-x="1106" />
<glyph unicode="&#x2003;" horiz-adv-x="2213" />
<glyph unicode="&#x2004;" horiz-adv-x="737" />
<glyph unicode="&#x2005;" horiz-adv-x="553" />
<glyph unicode="&#x2006;" horiz-adv-x="368" />
<glyph unicode="&#x2007;" horiz-adv-x="368" />
<glyph unicode="&#x2008;" horiz-adv-x="276" />
<glyph unicode="&#x2009;" horiz-adv-x="442" />
<glyph unicode="&#x200a;" horiz-adv-x="122" />
<glyph unicode="&#x2010;" horiz-adv-x="925" d="M31 721v37.5v47v41v21.5q4 23 14 27t37 2q29 0 85 -1t128 -3t150.5 -3t151.5 -1t133.5 1t92.5 5q68 10 68 -68t-2 -113.5t-15.5 -48t-44 -9.5t-90.5 3q-84 0 -173 1.5t-177 4.5t-170 5t-151 6q-25 -2 -31 9t-6 36zM82 827q4 -18 15.5 -17t21.5 5q96 16 190 19.5 t191 -11.5q125 -18 258 4q-162 14 -324 21.5t-323 1.5q-10 -2 -21.5 -4.5t-7.5 -18.5zM602 728q6 -1 42 0t122 5q8 0 15 6.5t5 14.5q-4 12 -11 16t-16 4t-17.5 -2t-16.5 0q-6 2 -12 0t-11 -2q4 -10 -13 -17.5t-38.5 -12.5t-38 -8t-10.5 -4z" />
<glyph unicode="&#x2011;" horiz-adv-x="925" d="M31 721v37.5v47v41v21.5q4 23 14 27t37 2q29 0 85 -1t128 -3t150.5 -3t151.5 -1t133.5 1t92.5 5q68 10 68 -68t-2 -113.5t-15.5 -48t-44 -9.5t-90.5 3q-84 0 -173 1.5t-177 4.5t-170 5t-151 6q-25 -2 -31 9t-6 36zM82 827q4 -18 15.5 -17t21.5 5q96 16 190 19.5 t191 -11.5q125 -18 258 4q-162 14 -324 21.5t-323 1.5q-10 -2 -21.5 -4.5t-7.5 -18.5zM602 728q6 -1 42 0t122 5q8 0 15 6.5t5 14.5q-4 12 -11 16t-16 4t-17.5 -2t-16.5 0q-6 2 -12 0t-11 -2q4 -10 -13 -17.5t-38.5 -12.5t-38 -8t-10.5 -4z" />
<glyph unicode="&#x2012;" horiz-adv-x="925" d="M31 721v37.5v47v41v21.5q4 23 14 27t37 2q29 0 85 -1t128 -3t150.5 -3t151.5 -1t133.5 1t92.5 5q68 10 68 -68t-2 -113.5t-15.5 -48t-44 -9.5t-90.5 3q-84 0 -173 1.5t-177 4.5t-170 5t-151 6q-25 -2 -31 9t-6 36zM82 827q4 -18 15.5 -17t21.5 5q96 16 190 19.5 t191 -11.5q125 -18 258 4q-162 14 -324 21.5t-323 1.5q-10 -2 -21.5 -4.5t-7.5 -18.5zM602 728q6 -1 42 0t122 5q8 0 15 6.5t5 14.5q-4 12 -11 16t-16 4t-17.5 -2t-16.5 0q-6 2 -12 0t-11 -2q4 -10 -13 -17.5t-38.5 -12.5t-38 -8t-10.5 -4z" />
<glyph unicode="&#x2013;" horiz-adv-x="792" d="M31 748v37.5v47v41v21.5q4 23 14 27t37 2q43 0 124 -2t172 -4.5t177 -2.5t135 7q68 10 68 -68t-2 -113.5t-15.5 -48t-44 -9.5t-90.5 3q-84 0 -152.5 1t-131 4t-124 5t-130.5 6q-25 -2 -31 9.5t-6 36.5zM82 854q4 -18 15.5 -17t21.5 5q47 8 73.5 13t50 6t50 -2t74.5 -9 q125 -18 258 4q-80 6 -140.5 12t-117 9.5t-117 3.5t-139.5 -2q-10 -2 -21.5 -4.5t-7.5 -18.5zM469 755q6 -1 42 0t122 5q8 0 15 6t5 14q-4 12 -11 16.5t-16.5 4.5t-17.5 -2t-16 0q-6 2 -12.5 0t-10.5 -2q4 -10 -13 -17.5t-38.5 -12.5t-38 -8t-10.5 -4z" />
<glyph unicode="&#x2014;" horiz-adv-x="1296" d="M31 748v37.5v47v41v21.5q4 23 14 27t37 2q29 0 113 -1t196.5 -3t239.5 -3.5t240.5 -1.5t201.5 1.5t121 5.5q68 10 68 -68t-2.5 -113.5t-15.5 -48t-44 -9.5t-90 3q-55 0 -141 1t-186.5 2t-207 2t-204 3t-177 4t-126.5 4q-25 -2 -31 9.5t-6 36.5zM82 854q4 -18 15.5 -17 t21.5 5q31 6 90 10t133 6t152.5 3t152.5 0t132.5 -4t90.5 -7q125 -18 258 4q-53 4 -135 8t-177 7t-196.5 5.5t-196.5 3.5t-177 1t-135 -2q-10 -2 -21.5 -4.5t-7.5 -18.5zM973 755q6 -1 42 0t122 5q8 0 15 6t5 14q-4 12 -11 16.5t-16.5 4.5t-17.5 -2t-16 0q-6 2 -12.5 0 t-10.5 -2q4 -10 -13.5 -17.5t-39 -12.5t-37.5 -8t-10 -4z" />
<glyph unicode="&#x201a;" horiz-adv-x="348" d="M55 -84q25 68 22 121t-3 110q6 59 31.5 94t91.5 31q59 -4 92 -31.5t26 -93.5q-6 -63 -51 -120.5t-95 -93t-88 -44t-26 26.5zM120 156.5q-1 -29.5 15 -66.5q29 33 40 59.5t3 57.5q-2 4 -13 8t-15 0q-29 -29 -30 -58.5z" />
<glyph unicode="&#x2026;" horiz-adv-x="964" d="M29 147q8 59 33.5 94t97.5 31q63 -4 97 -31.5t30 -93.5q-4 -63 -34 -109t-103 -44q-37 0 -58.5 14.5t-34 36t-18.5 48t-10 54.5zM186 180q0 -6 5.5 -15t13.5 -28q14 16 23.5 23.5t13.5 12.5t4 11t-4 23q-2 4 -13.5 8t-15.5 0q-14 -14 -20.5 -21.5t-6.5 -13.5zM350 147 q8 59 33.5 94t97.5 31q63 -4 97 -31.5t30 -93.5q-4 -63 -33.5 -109t-103.5 -44q-37 0 -58.5 14.5t-33.5 36t-18.5 48t-10.5 54.5zM508 180q0 -6 5 -15t13 -28q14 16 23.5 23.5t13.5 12.5t4 11t-4 23q-2 4 -13 8t-15 0q-14 -14 -20.5 -21.5t-6.5 -13.5zM672 147q8 59 33.5 94 t97.5 31q63 -4 97 -31.5t30 -93.5q-4 -63 -34 -109t-103 -44q-37 0 -58.5 14.5t-34 36t-18.5 48t-10 54.5zM829 180q0 -6 5.5 -15t13.5 -28q14 16 23.5 23.5t13.5 12.5t4 11t-4 23q-2 4 -13.5 8t-15.5 0q-14 -14 -20.5 -21.5t-6.5 -13.5z" />
<glyph unicode="&#x202f;" horiz-adv-x="442" />
<glyph unicode="&#x205f;" horiz-adv-x="553" />
<glyph unicode="&#x20ac;" horiz-adv-x="1214" d="M33 881q-2 18 0 86.5t9 155.5t18.5 177.5t29.5 149.5q47 166 184 258t342 82q61 4 124 -16.5t119 -62.5t101.5 -102.5t73.5 -133.5q57 -150 79 -302.5t17.5 -304t-30 -299t-64.5 -282.5q-37 -104 -95 -161.5t-125.5 -85.5t-138.5 -34t-130 -8q-150 -4 -244 55.5 t-158 190.5q-74 154 -92 315.5t-20 321.5zM191 622q-1 -112 24 -208.5t74 -166t114 -89.5q-78 70 -107.5 150.5t-37.5 167.5t-9.5 178.5t-21.5 181.5q-35 -102 -36 -214zM393 501q6 -46 47 -95q12 59 -1 105t-42 95q-10 -59 -4 -105zM464 843q-1 -85 4 -165t18.5 -140.5 t34.5 -93t52 -20.5q41 33 55.5 77t22.5 89q10 70 16.5 135.5t9.5 133t2 139t-5 155.5q0 35 -2 68.5t-9.5 61.5t-20.5 46.5t-34 22.5q-27 4 -45 -15.5t-31.5 -50.5t-22.5 -67.5t-15 -67.5q-12 -61 -20.5 -142t-9.5 -166zM627 305q35 0 53 10.5t26.5 27.5t11.5 38.5t7 40.5 q-31 -20 -57.5 -46t-40.5 -71zM688 1622q59 -45 117.5 -95t97.5 -145q-6 106 -59.5 163t-155.5 77zM768 580q27 35 41 59.5t17 47t-3 46t-20 58.5q-23 -53 -32 -102.5t-3 -108.5z" />
<glyph unicode="&#x2122;" horiz-adv-x="1949" d="M61 1672q0 44 21 89q10 27 28.5 32t41.5 5h129h198.5h243.5h266t267.5 1t244 1h197.5h129q29 0 51 -10t18 -47q0 -20 2.5 -49t2.5 -57.5t-6.5 -54.5t-26.5 -38q-8 -6 -59.5 -9t-129 -6t-176 -5t-201 -2h-202h-178t-131 1t-60.5 3q-25 2 -40 -8.5t-23.5 -30t-10.5 -44 t-2 -48.5v-107t1 -71.5t0 -54t0 -54.5t1 -72v-106q0 -43 -11 -76t-52 -49q-86 -37 -182 -4q-23 8 -23 33.5v48.5v391q0 41 -4 64.5t-8 64.5q-4 45 -8 69.5t-16.5 36t-36 12.5t-66.5 1q-10 0 -21.5 -1t-21.5 -1q-47 -2 -80 18.5t-49.5 55t-16.5 78.5zM102 1102q4 29 17.5 47 t48.5 14q31 -2 48 -15t15 -46q-4 -31 -18 -53.5t-49 -22.5q-37 0 -47.5 23.5t-14.5 52.5zM147 1704q53 -20 94.5 -12t77.5 24q-41 4 -82 10.5t-90 -22.5zM180.5 1117.5q1.5 -3.5 9.5 -19.5q14 16 17.5 17t-0.5 15q0 4 -5 5.5t-9 -0.5q-14 -14 -12.5 -17.5zM539.5 1133.5 q-5.5 -52.5 23.5 -103.5q14 53 12 104.5t-18 104.5q-12 -53 -17.5 -105.5zM707 1158q2 134 2 282v20.5t3 23.5t11 18t25 7q90 0 142 -4t71 -49q16 -39 41.5 -94t52 -110.5t51 -102.5t37.5 -72q27 47 57.5 109.5t60 121t53 102.5t34.5 56q14 29 24 36t35 7h121q53 0 53 -51 v-604q0 -14 -3 -29.5t-22 -19.5q-23 -4 -56.5 -5t-64 1t-52 8t-21.5 16q4 90 9 182.5t7 186.5q-6 -6 -27.5 -44t-48 -84t-52 -92t-36.5 -67q-2 -4 -16 -17t-59 -13q-47 0 -68 30q-10 12 -25.5 41t-35 68t-41 84t-45.5 88q-2 -20 -3 -66.5t-1 -98.5t-1 -102.5t-1 -76.5 q2 -29 -11.5 -38t-46.5 -7q-37 0 -64.5 1t-47 8t-29.5 22.5t-10 46.5q-4 147 -2 281zM768 879q0 -4 2 -10.5t18 -4.5q16 4 15.5 9.5t-2.5 13.5q-35 102 -8 200q16 72 -7 138q-12 -86 -18 -172t0 -174zM1706 1102q4 29 17.5 47t48.5 14q31 -2 48 -15t13 -46 q-2 -31 -16.5 -53.5t-49.5 -22.5q-37 0 -47 23.5t-14 52.5zM1784 1117.5q2 -3.5 10 -19.5q14 16 17.5 17t-1.5 15q0 4 -5 5.5t-9 -0.5q-14 -14 -12 -17.5z" />
<glyph unicode="&#x25fc;" horiz-adv-x="1024" d="M0 0z" />
</font>
</defs>
</svg>
